<svg version="1.1" id="Layer_1" xmlns="http://www.w3.org/2000/svg" xmlns:xlink="http://www.w3.org/1999/xlink" x="0px" y="0px"
	 width="35px" height="41.001px" viewBox="3018 5322 35 41.001" enable-background="new 3018 5322 35 41.001" xml:space="preserve">
<title>Calendar</title>
<path id="Fill-148-Copy-2" d="M3039.714,5342.583c-0.209-0.252-0.455-0.476-0.729-0.665c0.178-0.14,0.342-0.297,0.491-0.47
	c0.277-0.323,0.492-0.699,0.642-1.118c0.144-0.408,0.216-0.848,0.216-1.311c0-0.69-0.151-1.302-0.449-1.821
	c-0.289-0.5-0.671-0.916-1.135-1.233c-0.447-0.308-0.962-0.535-1.53-0.677c-1.238-0.312-2.61-0.277-3.671,0.162
	c-0.597,0.247-1.116,0.595-1.539,1.033c-0.429,0.44-0.76,0.976-0.987,1.597c-0.219,0.603-0.33,1.267-0.33,1.975
	c0,0.397,0.324,0.72,0.723,0.72h0.704c0.386,0,0.704-0.303,0.723-0.688c0.021-0.456,0.095-0.883,0.223-1.266
	c0.12-0.358,0.284-0.654,0.499-0.902c0.207-0.237,0.474-0.43,0.794-0.571c0.56-0.244,1.331-0.298,2.169-0.083
	c0.327,0.085,0.625,0.214,0.884,0.38c0.239,0.153,0.426,0.344,0.574,0.585c0.133,0.218,0.199,0.476,0.199,0.788
	c0,0.407-0.081,0.731-0.24,0.969c-0.172,0.257-0.393,0.455-0.674,0.604c-0.31,0.164-0.664,0.274-1.052,0.331
	c-0.426,0.062-0.86,0.082-1.283,0.06c-0.192-0.006-0.39,0.061-0.535,0.197c-0.144,0.136-0.225,0.325-0.225,0.523v0.61
	c0,0.2,0.083,0.391,0.23,0.527c0.146,0.137,0.342,0.213,0.542,0.192c0.48-0.033,0.951-0.016,1.415,0.051
	c0.428,0.062,0.81,0.183,1.139,0.363c0.299,0.163,0.53,0.385,0.713,0.68c0.175,0.283,0.265,0.663,0.265,1.129
	c0,0.39-0.075,0.724-0.227,1.02c-0.154,0.3-0.362,0.553-0.622,0.753c-0.263,0.208-0.579,0.368-0.94,0.478
	c-0.845,0.257-1.801,0.215-2.5-0.05c-0.373-0.142-0.676-0.333-0.926-0.589c-0.248-0.25-0.433-0.556-0.567-0.938
	c-0.135-0.381-0.194-0.828-0.173-1.329c0.009-0.196-0.063-0.386-0.199-0.528c-0.138-0.142-0.326-0.221-0.521-0.221h-0.708
	c-0.385,0-0.701,0.3-0.722,0.682c-0.042,0.805,0.05,1.536,0.272,2.172c0.229,0.652,0.583,1.212,1.052,1.662
	c0.459,0.449,1.03,0.794,1.691,1.026c0.637,0.223,1.358,0.336,2.14,0.336c0.657,0,1.293-0.088,1.888-0.26
	c0.62-0.179,1.173-0.458,1.64-0.831c0.478-0.379,0.861-0.856,1.139-1.414c0.287-0.565,0.433-1.228,0.433-1.97
	c0-0.514-0.08-1.002-0.235-1.446C3040.241,5343.355,3040.011,5342.945,3039.714,5342.583L3039.714,5342.583z M3051.145,5324.664
	h-4.622v-1.943c0-0.398-0.323-0.721-0.723-0.721c-0.398,0-0.722,0.323-0.722,0.721v1.943h-8.907v-1.943
	c0-0.398-0.324-0.721-0.723-0.721s-0.723,0.323-0.723,0.721v1.943h-8.909v-1.943c0-0.398-0.323-0.721-0.722-0.721
	s-0.723,0.323-0.723,0.721v1.943h-4.514c-1.023,0-1.858,0.83-1.858,1.852l0.001,34.688c0.033,1.007,0.846,1.797,1.857,1.797h31.287
	c1.009,0,1.824-0.79,1.855-1.82v-34.665C3053,5325.494,3052.167,5324.664,3051.145,5324.664L3051.145,5324.664z M3045.8,5329.711
	c0.153,0,0.289-0.058,0.406-0.14c-0.103,0.103-0.245,0.167-0.401,0.167c-0.104,0-0.196-0.036-0.281-0.083
	C3045.611,5329.691,3045.703,5329.711,3045.8,5329.711L3045.8,5329.711z M3035.449,5329.711c0.099,0,0.194-0.02,0.281-0.056
	c-0.085,0.048-0.176,0.083-0.279,0.083c-0.106,0-0.198-0.036-0.282-0.083C3035.256,5329.692,3035.349,5329.711,3035.449,5329.711
	L3035.449,5329.711z M3025.095,5329.711c0.099,0,0.195-0.02,0.281-0.056c-0.083,0.048-0.175,0.083-0.279,0.083
	s-0.196-0.036-0.28-0.083C3024.902,5329.692,3024.995,5329.711,3025.095,5329.711L3025.095,5329.711z M3019.858,5361.559
	c-0.223,0-0.404-0.176-0.41-0.378v-6.171h21.055c-0.484,2.038-1.462,4.663-3.416,6.549H3019.858L3019.858,5361.559z
	 M3051.554,5361.159c-0.007,0.22-0.191,0.4-0.41,0.4h-11.689c1.236-1.081,2.501-2.398,3.818-3.776l0.702-0.733
	c2.07-2.157,5.427-5.819,7.579-8.988L3051.554,5361.159L3051.554,5361.159z M3041.098,5357.964c0.909-2.278,1.197-4.437,1.287-5.427
	c0.814-0.205,2.48-0.697,4.792-1.752c0.294-0.135,0.579-0.284,0.859-0.444c-1.766,2.164-3.728,4.277-5.105,5.713l-0.704,0.735
	C3041.847,5357.187,3041.47,5357.581,3041.098,5357.964L3041.098,5357.964z M3051.554,5345.229
	c-0.547,0.721-2.481,3.102-4.979,4.245c-3.095,1.414-4.982,1.764-5.003,1.768c-0.333,0.061-0.582,0.345-0.594,0.684
	c0,0.02-0.028,0.665-0.185,1.642h-21.345l-0.002-27.053c0-0.226,0.185-0.41,0.412-0.41h4.514v1.198
	c-0.755,0.291-1.292,1.017-1.292,1.869c0,1.108,0.904,2.008,2.016,2.008c1.108,0,2.012-0.9,2.012-2.008
	c0-0.854-0.539-1.58-1.292-1.87v-1.197h8.909v1.197c-0.754,0.291-1.293,1.017-1.293,1.87c0,1.108,0.906,2.008,2.018,2.008
	c1.109,0,2.012-0.9,2.012-2.008c0-0.854-0.539-1.58-1.292-1.87v-1.197h8.907v1.198c-0.753,0.292-1.29,1.017-1.29,1.869
	c0,1.108,0.904,2.008,2.016,2.008c1.108,0,2.012-0.9,2.012-2.008c0-0.854-0.541-1.581-1.294-1.871v-1.196h4.622
	c0.226,0,0.41,0.185,0.41,0.41L3051.554,5345.229L3051.554,5345.229z"/>
</svg>
