<?xml version="1.0" encoding="utf-8"?>
<svg version="1.1" id="Layer_1" xmlns="http://www.w3.org/2000/svg" xmlns:xlink="http://www.w3.org/1999/xlink" x="0px" y="0px"
	 width="317px" height="317px" viewBox="2877.5 5254.5 317 317" enable-background="new 2877.5 5254.5 317 317"
	 xml:space="preserve">
<title>Circle Indicator</title>
<path d="M3035.925,5571.5c-0.688,0-1.374-0.005-2.059-0.014l0.119-9c0.646,0.009,1.292,0.014,1.94,0.014L3035.925,5571.5
	L3035.925,5571.5z M3037.978,5571.488l-0.105-9c0.646-0.007,1.292-0.02,1.938-0.036l0.225,8.998
	C3039.35,5571.467,3038.663,5571.479,3037.978,5571.488z M3031.808,5571.445c-0.685-0.018-1.369-0.04-2.052-0.065l0.343-8.994
	c0.648,0.025,1.296,0.046,1.946,0.063L3031.808,5571.445z M3042.088,5571.385l-0.344-8.994c0.648-0.024,1.297-0.053,1.944-0.085
	l0.449,8.988C3043.455,5571.328,3042.771,5571.358,3042.088,5571.385z M3027.699,5571.286c-0.687-0.035-1.372-0.075-2.056-0.12
	l0.581-8.98c0.644,0.041,1.29,0.079,1.936,0.112L3027.699,5571.286z M3046.193,5571.177l-0.566-8.982
	c0.646-0.041,1.291-0.086,1.936-0.136l0.686,8.975C3047.564,5571.085,3046.879,5571.134,3046.193,5571.177z M3023.59,5571.021
	c-0.683-0.053-1.365-0.11-2.046-0.171l0.806-8.965c0.645,0.059,1.291,0.112,1.939,0.163L3023.59,5571.021z M3050.298,5570.864
	l-0.803-8.965c0.646-0.058,1.289-0.119,1.931-0.186l0.924,8.953C3051.667,5570.737,3050.983,5570.803,3050.298,5570.864z
	 M3019.495,5570.651c-0.684-0.07-1.367-0.146-2.048-0.226l1.043-8.939c0.641,0.075,1.283,0.146,1.927,0.212L3019.495,5570.651z
	 M3054.39,5570.444l-1.027-8.941c0.643-0.073,1.285-0.152,1.925-0.234l1.148,8.926
	C3055.755,5570.282,3055.073,5570.365,3054.39,5570.444z M3015.404,5570.174c-0.682-0.089-1.363-0.182-2.042-0.279l1.28-8.908
	c0.639,0.092,1.279,0.179,1.921,0.262L3015.404,5570.174z M3058.476,5569.918l-1.266-8.91c0.641-0.091,1.279-0.186,1.918-0.285
	l1.385,8.893C3059.835,5569.721,3059.155,5569.821,3058.476,5569.918z M3011.326,5569.591c-0.677-0.106-1.353-0.217-2.027-0.331
	l1.504-8.873c0.639,0.108,1.279,0.213,1.92,0.313L3011.326,5569.591z M3062.539,5569.287l-1.488-8.877
	c0.638-0.106,1.273-0.218,1.909-0.334l1.609,8.855C3063.895,5569.054,3063.218,5569.173,3062.539,5569.287z M3007.271,5568.902
	c-0.677-0.124-1.352-0.252-2.025-0.385l1.741-8.83c0.634,0.125,1.268,0.245,1.904,0.361L3007.271,5568.902z M3066.592,5568.549
	l-1.725-8.834c0.635-0.123,1.268-0.251,1.897-0.384l1.85,8.809C3067.941,5568.28,3067.268,5568.416,3066.592,5568.549z
	 M3003.229,5568.106c-0.671-0.142-1.34-0.287-2.008-0.437l1.965-8.783c0.632,0.142,1.266,0.279,1.901,0.413L3003.229,5568.106z
	 M3070.618,5567.707l-1.949-8.787c0.631-0.14,1.26-0.284,1.889-0.433l2.07,8.758
	C3071.96,5567.403,3071.29,5567.558,3070.618,5567.707z M2999.213,5567.208c-0.669-0.159-1.337-0.322-2.003-0.49l2.203-8.727
	c0.626,0.158,1.253,0.312,1.882,0.461L2999.213,5567.208z M3074.636,5566.757l-2.199-8.727c0.631-0.159,1.261-0.321,1.888-0.486
	l2.297,8.701C3075.961,5566.42,3075.3,5566.59,3074.636,5566.757z M2995.223,5566.204c-0.667-0.177-1.333-0.357-1.997-0.545
	l2.439-8.662c0.619,0.174,1.24,0.343,1.862,0.508L2995.223,5566.204z M3078.614,5565.706l-2.424-8.668
	c0.625-0.175,1.247-0.352,1.869-0.534l2.531,8.637C3079.934,5565.333,3079.274,5565.521,3078.614,5565.706z M2991.253,5565.095
	c-0.656-0.193-1.311-0.391-1.964-0.591l2.64-8.604c0.621,0.19,1.242,0.378,1.866,0.562L2991.253,5565.095z M3082.557,5564.553
	l-2.633-8.607c0.618-0.188,1.232-0.382,1.845-0.579l2.76,8.566C3083.873,5564.144,3083.216,5564.351,3082.557,5564.553z
	 M2987.315,5563.882c-0.656-0.211-1.31-0.428-1.962-0.646l2.866-8.531c0.615,0.207,1.232,0.41,1.852,0.609L2987.315,5563.882z
	 M3086.485,5563.289l-2.873-8.529c0.613-0.207,1.227-0.416,1.838-0.631l2.98,8.492
	C3087.784,5562.848,3087.136,5563.07,3086.485,5563.289z M2983.398,5562.562c-0.65-0.229-1.299-0.461-1.945-0.697l3.092-8.453
	c0.609,0.223,1.22,0.443,1.833,0.658L2983.398,5562.562z M3090.372,5561.927l-3.098-8.449c0.61-0.225,1.22-0.451,1.827-0.681
	l3.191,8.414C3091.654,5561.454,3091.014,5561.692,3090.372,5561.927z M2979.518,5561.139c-0.646-0.246-1.29-0.496-1.931-0.751
	l3.326-8.363c0.601,0.239,1.204,0.474,1.809,0.704L2979.518,5561.139z M3094.217,5560.466l-3.309-8.369
	c0.602-0.238,1.202-0.479,1.8-0.726l3.418,8.326C3095.491,5559.957,3094.855,5560.214,3094.217,5560.466z M2975.675,5559.615
	c-0.637-0.263-1.271-0.529-1.904-0.8l3.536-8.275c0.597,0.255,1.196,0.506,1.796,0.753L2975.675,5559.615z M3098.022,5558.905
	l-3.535-8.277c0.595-0.254,1.188-0.511,1.78-0.771l3.629,8.236C3099.273,5558.367,3098.648,5558.638,3098.022,5558.905z
	 M2971.88,5557.993c-0.631-0.279-1.26-0.562-1.887-0.851l3.76-8.178c0.588,0.271,1.178,0.536,1.769,0.798L2971.88,5557.993z
	 M3101.764,5557.253l-3.73-8.189c0.586-0.268,1.171-0.539,1.754-0.814l3.838,8.141
	C3103.007,5556.681,3102.387,5556.97,3101.764,5557.253z M2968.122,5556.271c-0.622-0.296-1.242-0.595-1.86-0.898l3.973-8.076
	c0.582,0.286,1.166,0.567,1.751,0.846L2968.122,5556.271z M3105.479,5555.5l-3.951-8.086c0.581-0.284,1.159-0.571,1.735-0.862
	l4.051,8.037C3106.704,5554.896,3106.093,5555.2,3105.479,5555.5z M2964.417,5554.452c-0.614-0.312-1.226-0.627-1.835-0.947
	l4.182-7.969c0.574,0.301,1.15,0.598,1.729,0.891L2964.417,5554.452z M3109.143,5553.65l-4.162-7.98
	c0.573-0.299,1.144-0.601,1.712-0.906l4.262,7.928C3110.353,5553.015,3109.749,5553.334,3109.143,5553.65z M2960.766,5552.54
	c-0.605-0.327-1.209-0.658-1.81-0.993l4.382-7.861c0.566,0.315,1.133,0.627,1.704,0.935L2960.766,5552.54z M3112.757,5551.708
	l-4.365-7.871c0.563-0.312,1.126-0.629,1.686-0.949l4.469,7.812C3113.951,5551.04,3113.355,5551.376,3112.757,5551.708z
	 M2957.16,5550.531c-0.595-0.343-1.188-0.688-1.778-1.037l4.581-7.746c0.559,0.33,1.12,0.657,1.683,0.98L2957.16,5550.531z
	 M3116.322,5549.669l-4.57-7.754c0.557-0.328,1.111-0.659,1.663-0.994l4.668,7.695
	C3117.498,5548.971,3116.912,5549.321,3116.322,5549.669z M2953.613,5548.432c-0.586-0.357-1.17-0.72-1.751-1.084l4.78-7.625
	c0.55,0.345,1.102,0.686,1.656,1.023L2953.613,5548.432z M3119.828,5547.541l-4.762-7.637c0.549-0.342,1.093-0.687,1.636-1.035
	l4.863,7.572C3120.989,5546.812,3120.41,5547.178,3119.828,5547.541z M2950.122,5546.24c-0.577-0.373-1.152-0.75-1.724-1.13
	l4.98-7.496c0.539,0.358,1.082,0.714,1.626,1.065L2950.122,5546.24z M3123.286,5545.319l-4.961-7.508
	c0.538-0.356,1.074-0.716,1.607-1.078l5.062,7.441C3124.429,5544.561,3123.859,5544.941,3123.286,5545.319z M2946.687,5543.958
	c-0.567-0.389-1.132-0.779-1.693-1.174l5.176-7.363c0.53,0.373,1.062,0.742,1.598,1.107L2946.687,5543.958z M3126.687,5543.01
	l-5.158-7.375c0.53-0.371,1.059-0.745,1.584-1.122l5.248,7.311C3127.806,5542.222,3127.248,5542.617,3126.687,5543.01z
	 M2943.316,5541.592c-0.557-0.402-1.111-0.809-1.663-1.217l5.363-7.229c0.52,0.387,1.042,0.77,1.568,1.148L2943.316,5541.592z
	 M3130.025,5540.612l-5.35-7.238c0.521-0.384,1.038-0.771,1.554-1.162l5.439,7.17
	C3131.124,5539.796,3130.575,5540.205,3130.025,5540.612z M2940.009,5539.138c-0.546-0.416-1.088-0.835-1.627-1.257l5.541-7.092
	c0.511,0.398,1.024,0.796,1.54,1.188L2940.009,5539.138z M3133.299,5538.13l-5.529-7.102c0.509-0.396,1.016-0.796,1.52-1.199
	l5.625,7.025C3134.379,5537.283,3133.841,5537.708,3133.299,5538.13z M2936.765,5536.598c-0.536-0.431-1.068-0.864-1.598-1.303
	l5.732-6.938c0.499,0.411,1,0.819,1.504,1.225L2936.765,5536.598z M3136.506,5535.564l-5.707-6.959c0.5-0.41,0.996-0.823,1.49-1.239
	l5.799,6.883C3137.564,5534.69,3137.037,5535.129,3136.506,5535.564z M2933.591,5533.979c-0.524-0.443-1.044-0.891-1.562-1.341
	l5.903-6.793c0.489,0.425,0.98,0.847,1.474,1.265L2933.591,5533.979z M3139.65,5532.915l-5.885-6.809
	c0.488-0.423,0.974-0.849,1.457-1.277l5.977,6.729C3140.687,5532.014,3140.17,5532.467,3139.65,5532.915z M2930.483,5531.274
	c-0.512-0.457-1.021-0.918-1.526-1.381l6.081-6.635c0.477,0.438,0.957,0.871,1.44,1.303L2930.483,5531.274z M3142.723,5530.186
	l-6.053-6.66c0.477-0.434,0.95-0.871,1.421-1.312l6.148,6.572C3143.737,5529.256,3143.232,5529.723,3142.723,5530.186z
	 M2927.448,5528.493c-0.499-0.47-0.995-0.942-1.489-1.418l6.248-6.479c0.466,0.45,0.935,0.897,1.408,1.342L2927.448,5528.493z
	 M3145.729,5527.376l-6.225-6.5c0.466-0.446,0.928-0.896,1.387-1.349l6.318,6.41
	C3146.719,5526.421,3146.226,5526.9,3145.729,5527.376z M2924.488,5525.637c-0.487-0.482-0.972-0.968-1.453-1.456l6.413-6.314
	c0.454,0.461,0.911,0.919,1.371,1.374L2924.488,5525.637z M3148.671,5524.48l-6.41-6.318c0.457-0.463,0.912-0.929,1.364-1.396
	l6.475,6.25C3149.626,5523.507,3149.149,5523.994,3148.671,5524.48z M2921.603,5522.707c-0.476-0.496-0.948-0.994-1.418-1.497
	l6.578-6.143c0.44,0.472,0.884,0.94,1.331,1.405L2921.603,5522.707z M3151.521,5521.523l-6.559-6.164
	c0.444-0.473,0.885-0.947,1.322-1.424l6.635,6.08C3152.456,5520.521,3151.99,5521.023,3151.521,5521.523z M2918.793,5519.702
	c-0.463-0.508-0.922-1.019-1.378-1.533l6.734-5.971c0.429,0.483,0.86,0.963,1.294,1.439L2918.793,5519.702z M3154.3,5518.488
	l-6.715-5.992c0.432-0.483,0.859-0.97,1.284-1.458l6.791,5.906C3155.21,5517.462,3154.757,5517.976,3154.3,5518.488z
	 M2916.062,5516.623c-0.448-0.518-0.893-1.039-1.334-1.562l6.883-5.799c0.417,0.494,0.837,0.986,1.26,1.477L2916.062,5516.623z
	 M3156.999,5515.383l-6.863-5.82c0.417-0.493,0.832-0.989,1.244-1.488l6.941,5.729
	C3157.884,5514.333,3157.443,5514.86,3156.999,5515.383z M2913.413,5513.479c-0.435-0.529-0.866-1.062-1.294-1.598l7.03-5.619
	c0.404,0.506,0.811,1.008,1.221,1.508L2913.413,5513.479z M3159.622,5512.204l-7.018-5.635c0.406-0.506,0.809-1.014,1.208-1.524
	l7.088,5.547C3160.478,5511.132,3160.052,5511.669,3159.622,5512.204z M2910.846,5510.267c-0.419-0.539-0.835-1.081-1.249-1.625
	l7.167-5.443c0.392,0.517,0.787,1.031,1.185,1.543L2910.846,5510.267z M3162.161,5508.961l-7.162-5.451
	c0.393-0.516,0.782-1.034,1.168-1.555l7.23,5.359C3162.988,5507.866,3162.577,5508.414,3162.161,5508.961z M2908.365,5506.993
	c-0.407-0.552-0.811-1.106-1.21-1.664l7.312-5.246c0.376,0.524,0.756,1.046,1.139,1.564L2908.365,5506.993z M3164.612,5505.652
	l-7.297-5.268c0.38-0.526,0.755-1.055,1.128-1.585l7.363,5.176C3165.412,5504.537,3165.014,5505.097,3164.612,5505.652z
	 M2905.968,5503.655c-0.393-0.562-0.781-1.126-1.167-1.693l7.445-5.057c0.363,0.534,0.729,1.065,1.098,1.594L2905.968,5503.655z
	 M3166.978,5502.283l-7.428-5.084c0.365-0.533,0.727-1.069,1.085-1.608l7.496,4.98
	C3167.751,5501.144,3167.366,5501.715,3166.978,5502.283z M2903.66,5500.256c-0.378-0.572-0.753-1.147-1.124-1.726l7.576-4.857
	c0.348,0.543,0.7,1.083,1.055,1.62L2903.66,5500.256z M3169.259,5498.849l-7.559-4.885c0.351-0.544,0.698-1.09,1.042-1.638
	l7.625,4.781C3170.002,5497.69,3169.633,5498.271,3169.259,5498.849z M2901.439,5496.799c-0.362-0.582-0.721-1.165-1.076-1.751
	l7.698-4.662c0.334,0.553,0.673,1.103,1.015,1.649L2901.439,5496.799z M3171.451,5495.354l-7.686-4.684
	c0.337-0.553,0.671-1.107,1-1.665l7.748,4.578C3172.164,5494.177,3171.81,5494.767,3171.451,5495.354z M2899.31,5493.285
	c-0.346-0.589-0.688-1.18-1.027-1.771l7.812-4.469c0.321,0.562,0.646,1.122,0.974,1.68L2899.31,5493.285z M3173.553,5491.803
	l-7.809-4.477c0.323-0.562,0.643-1.128,0.959-1.695l7.863,4.379C3174.232,5490.61,3173.894,5491.207,3173.553,5491.803z
	 M2897.275,5489.724c-0.332-0.599-0.66-1.199-0.984-1.802l7.928-4.262c0.305,0.568,0.614,1.135,0.927,1.698L2897.275,5489.724z
	 M3175.558,5488.201l-7.92-4.275c0.309-0.57,0.612-1.144,0.913-1.718l7.975,4.172
	C3176.207,5486.989,3175.884,5487.596,3175.558,5488.201z M2895.332,5486.106c-0.316-0.606-0.628-1.216-0.936-1.827l8.036-4.051
	c0.291,0.576,0.585,1.15,0.882,1.722L2895.332,5486.106z M3177.469,5484.551l-8.023-4.078c0.293-0.575,0.58-1.152,0.864-1.733
	l8.084,3.957C3178.09,5483.316,3177.781,5483.935,3177.469,5484.551z M2893.484,5482.444c-0.3-0.615-0.597-1.232-0.89-1.854
	l8.141-3.838c0.274,0.582,0.553,1.162,0.836,1.74L2893.484,5482.444z M3179.285,5480.846l-8.127-3.867
	c0.277-0.583,0.55-1.168,0.819-1.756l8.184,3.744C3179.874,5479.596,3179.582,5480.222,3179.285,5480.846z M2891.733,5478.734
	c-0.284-0.621-0.563-1.245-0.84-1.871l8.236-3.629c0.26,0.591,0.524,1.178,0.791,1.764L2891.733,5478.734z M3181.008,5477.088
	l-8.23-3.643c0.263-0.593,0.521-1.188,0.776-1.786l8.277,3.534C3181.561,5475.827,3181.286,5476.458,3181.008,5477.088z
	 M2890.079,5474.983c-0.268-0.631-0.532-1.263-0.792-1.898l8.331-3.404c0.243,0.595,0.491,1.188,0.742,1.777L2890.079,5474.983z
	 M3182.631,5473.286l-8.324-3.42c0.246-0.6,0.489-1.202,0.729-1.806l8.369,3.311
	C3183.151,5472.012,3182.893,5472.649,3182.631,5473.286z M2888.52,5471.179c-0.251-0.638-0.499-1.277-0.743-1.918l8.413-3.197
	c0.23,0.605,0.464,1.21,0.702,1.812L2888.52,5471.179z M3184.153,5469.445l-8.412-3.199c0.23-0.607,0.459-1.217,0.683-1.829
	l8.451,3.098C3184.638,5468.16,3184.397,5468.805,3184.153,5469.445z M2887.059,5467.332c-0.235-0.645-0.467-1.291-0.693-1.938
	l8.494-2.975c0.214,0.61,0.432,1.22,0.653,1.827L2887.059,5467.332z M3185.572,5465.569l-8.49-2.984
	c0.215-0.612,0.427-1.227,0.634-1.843l8.529,2.873C3186.024,5464.269,3185.801,5464.92,3185.572,5465.569z M2885.697,5463.444
	c-0.218-0.649-0.432-1.301-0.642-1.953l8.568-2.756c0.198,0.617,0.4,1.233,0.606,1.848L2885.697,5463.444z M3186.895,5461.646
	l-8.57-2.748c0.199-0.62,0.395-1.242,0.587-1.866l8.602,2.648C3187.311,5460.337,3187.104,5460.992,3186.895,5461.646z
	 M2884.439,5459.524c-0.201-0.655-0.398-1.312-0.591-1.972l8.639-2.525c0.181,0.62,0.367,1.24,0.557,1.858L2884.439,5459.524z
	 M3188.109,5457.7l-8.641-2.52c0.182-0.624,0.361-1.248,0.536-1.875l8.668,2.424C3188.488,5456.388,3188.3,5457.045,3188.109,5457.7
	z M2883.285,5455.573c-0.184-0.66-0.364-1.323-0.539-1.986l8.701-2.301c0.165,0.626,0.334,1.25,0.508,1.873L2883.285,5455.573z
	 M3189.213,5453.743l-8.699-2.311c0.166-0.625,0.328-1.252,0.487-1.881l8.727,2.199
	C3189.561,5452.417,3189.389,5453.081,3189.213,5453.743z M2882.232,5451.592c-0.167-0.666-0.329-1.333-0.486-2.001l8.759-2.068
	c0.149,0.631,0.302,1.259,0.459,1.886L2882.232,5451.592z M3190.216,5449.752l-8.754-2.086c0.148-0.627,0.294-1.256,0.435-1.887
	l8.783,1.963C3190.529,5448.414,3190.376,5449.084,3190.216,5449.752z M2881.285,5447.585c-0.148-0.669-0.293-1.338-0.434-2.01
	l8.81-1.844c0.133,0.636,0.27,1.269,0.41,1.9L2881.285,5447.585z M3191.116,5445.73l-8.809-1.85
	c0.133-0.633,0.263-1.268,0.388-1.904l8.83,1.74C3191.393,5444.389,3191.257,5445.061,3191.116,5445.73z M2880.443,5443.555
	c-0.131-0.672-0.258-1.346-0.381-2.021l8.854-1.611c0.116,0.639,0.236,1.275,0.36,1.91L2880.443,5443.555z M3191.909,5441.693
	l-8.852-1.623c0.116-0.635,0.228-1.271,0.336-1.908l8.873,1.5C3192.152,5440.341,3192.033,5441.018,3191.909,5441.693z
	 M2879.707,5439.505c-0.114-0.676-0.223-1.353-0.328-2.031l8.894-1.377c0.099,0.64,0.202,1.279,0.309,1.916L2879.707,5439.505z
	 M3192.596,5437.632l-8.893-1.385c0.1-0.641,0.195-1.282,0.288-1.925l8.908,1.279
	C3192.803,5436.279,3192.701,5436.956,3192.596,5437.632z M2879.076,5435.438c-0.096-0.679-0.188-1.358-0.275-2.04l8.927-1.145
	c0.083,0.643,0.169,1.283,0.26,1.923L2879.076,5435.438z M3193.178,5433.561l-8.924-1.162c0.083-0.64,0.161-1.28,0.236-1.924
	l8.939,1.041C3193.351,5432.198,3193.267,5432.88,3193.178,5433.561z M2878.552,5431.354c-0.079-0.68-0.153-1.362-0.223-2.045
	l8.953-0.916c0.066,0.646,0.136,1.289,0.21,1.932L2878.552,5431.354z M3193.654,5429.469l-8.953-0.924
	c0.066-0.643,0.129-1.285,0.187-1.93l8.965,0.803C3193.791,5428.104,3193.725,5428.787,3193.654,5429.469z M2878.133,5427.261
	c-0.061-0.684-0.118-1.367-0.169-2.054l8.975-0.678c0.049,0.646,0.102,1.29,0.16,1.933L2878.133,5427.261z M3194.023,5425.374
	l-8.973-0.701c0.05-0.643,0.096-1.287,0.138-1.934l8.98,0.58C3194.125,5424.005,3194.077,5424.69,3194.023,5425.374z
	 M2877.82,5423.157c-0.043-0.684-0.082-1.368-0.116-2.055l8.988-0.453c0.033,0.647,0.069,1.295,0.11,1.939L2877.82,5423.157z
	 M3194.288,5421.265l-8.988-0.462c0.033-0.646,0.062-1.292,0.087-1.938l8.994,0.342
	C3194.354,5419.894,3194.323,5420.579,3194.288,5421.265z M2877.614,5419.048c-0.026-0.682-0.047-1.365-0.064-2.05l8.997-0.225
	c0.016,0.647,0.036,1.292,0.06,1.937L2877.614,5419.048z M3194.445,5417.155l-8.996-0.238c0.017-0.646,0.029-1.292,0.037-1.939
	l9,0.119C3194.477,5415.783,3194.464,5416.469,3194.445,5417.155z M2877.512,5414.941c-0.008-0.646-0.012-1.292-0.012-1.938v-0.115
	h9V5413c0,0.61,0.004,1.224,0.011,1.836L2877.512,5414.941z M3190,5413.038h-4.5c-0.001-0.669-0.005-1.308-0.013-1.946l9-0.107
	c0.008,0.669,0.012,1.339,0.013,2.009L3190,5413.038z M2886.514,5410.948l-8.999-0.118c0.009-0.688,0.022-1.374,0.041-2.059
	l8.997,0.237C2886.535,5409.654,2886.522,5410.3,2886.514,5410.948z M3185.451,5409.147c-0.015-0.643-0.035-1.286-0.061-1.927
	l8.994-0.344c0.025,0.686,0.048,1.372,0.064,2.06L3185.451,5409.147z M2886.615,5407.065l-8.993-0.349
	c0.027-0.687,0.058-1.373,0.094-2.058l8.988,0.469C2886.67,5405.772,2886.64,5406.418,2886.615,5407.065z M3185.305,5405.28
	c-0.033-0.649-0.07-1.296-0.111-1.943l8.982-0.567c0.043,0.682,0.082,1.366,0.117,2.05L3185.305,5405.28z M2886.817,5403.187
	l-8.981-0.579c0.044-0.687,0.093-1.372,0.146-2.055l8.973,0.7C2886.904,5401.896,2886.858,5402.541,2886.817,5403.187z
	 M3185.057,5401.4c-0.049-0.646-0.103-1.289-0.16-1.932l8.964-0.806c0.061,0.683,0.118,1.368,0.171,2.053L3185.057,5401.4z
	 M2887.118,5399.315l-8.964-0.811c0.062-0.685,0.128-1.368,0.199-2.05l8.952,0.93
	C2887.238,5398.027,2887.176,5398.67,2887.118,5399.315z M3184.71,5397.535c-0.066-0.646-0.137-1.291-0.211-1.934l8.941-1.03
	c0.078,0.679,0.152,1.36,0.223,2.042L3184.71,5397.535z M2887.518,5395.455l-8.938-1.047c0.08-0.682,0.164-1.363,0.252-2.042
	l8.925,1.162C2887.673,5394.168,2887.594,5394.811,2887.518,5395.455z M3184.263,5393.675c-0.083-0.642-0.17-1.282-0.261-1.921
	l8.91-1.268c0.097,0.68,0.189,1.36,0.276,2.042L3184.263,5393.675z M2888.019,5391.604l-8.909-1.277
	c0.098-0.68,0.199-1.358,0.305-2.035l8.892,1.392C2888.207,5390.323,2888.111,5390.963,2888.019,5391.604z M3183.717,5389.834
	c-0.1-0.639-0.203-1.277-0.311-1.914l8.873-1.504c0.115,0.677,0.225,1.355,0.33,2.034L3183.717,5389.834z M2888.62,5387.769
	l-8.873-1.509c0.115-0.678,0.235-1.354,0.359-2.029l8.852,1.629C2888.84,5386.495,2888.728,5387.131,2888.62,5387.769z
	 M3183.069,5386.002c-0.115-0.636-0.235-1.271-0.359-1.903l8.832-1.729c0.132,0.674,0.26,1.349,0.383,2.026L3183.069,5386.002z
	 M2889.319,5383.95l-8.83-1.738c0.132-0.674,0.27-1.347,0.411-2.018l8.807,1.855
	C2889.573,5382.681,2889.445,5383.314,2889.319,5383.95z M3182.323,5382.196c-0.133-0.635-0.27-1.268-0.41-1.899l8.785-1.954
	c0.148,0.668,0.293,1.338,0.434,2.01L3182.323,5382.196z M2890.12,5380.151l-8.782-1.97c0.15-0.67,0.305-1.339,0.464-2.006
	l8.755,2.085C2890.407,5378.89,2890.261,5379.52,2890.12,5380.151z M3181.478,5378.405c-0.148-0.629-0.302-1.256-0.458-1.882
	l8.729-2.19c0.168,0.667,0.331,1.334,0.489,2.004L3181.478,5378.405z M2891.017,5376.376l-8.727-2.2
	c0.167-0.665,0.339-1.329,0.515-1.991l8.698,2.31C2891.338,5375.12,2891.176,5375.747,2891.017,5376.376z M3180.536,5374.644
	c-0.166-0.626-0.336-1.251-0.51-1.875l8.67-2.415c0.184,0.66,0.363,1.321,0.539,1.985L3180.536,5374.644z M2892.015,5372.623
	l-8.667-2.424c0.186-0.662,0.375-1.322,0.568-1.98l8.635,2.539C2892.368,5371.378,2892.189,5372,2892.015,5372.623z
	 M3179.496,5370.91c-0.184-0.624-0.37-1.246-0.561-1.867l8.604-2.64c0.2,0.653,0.396,1.308,0.59,1.964L3179.496,5370.91z
	 M2893.11,5368.899l-8.601-2.65c0.203-0.659,0.411-1.316,0.623-1.972l8.564,2.765
	C2893.497,5367.659,2893.301,5368.278,2893.11,5368.899z M3178.355,5367.198c-0.2-0.619-0.402-1.235-0.608-1.85l8.531-2.864
	c0.218,0.648,0.432,1.298,0.642,1.95L3178.355,5367.198z M2894.308,5365.188l-8.529-2.874c0.221-0.654,0.445-1.306,0.674-1.956
	l8.489,2.989C2894.727,5363.959,2894.515,5364.573,2894.308,5365.188z M3177.116,5363.513c-0.214-0.611-0.432-1.22-0.653-1.827
	l8.453-3.089c0.235,0.645,0.467,1.291,0.694,1.939L3177.116,5363.513z M2895.601,5361.514l-8.45-3.099
	c0.237-0.647,0.478-1.292,0.723-1.934l8.409,3.208C2896.052,5360.296,2895.825,5360.904,2895.601,5361.514z M3175.783,5359.864
	c-0.229-0.603-0.463-1.205-0.7-1.805l8.369-3.311c0.253,0.639,0.502,1.281,0.745,1.924L3175.783,5359.864z M2896.99,5357.876
	l-8.364-3.322c0.254-0.64,0.512-1.277,0.773-1.913l8.322,3.428C2897.474,5356.669,2897.23,5357.271,2896.99,5357.876z
	 M3174.359,5356.262c-0.246-0.598-0.495-1.194-0.748-1.788l8.281-3.524c0.267,0.626,0.529,1.255,0.789,1.886L3174.359,5356.262z
	 M2898.474,5354.275l-8.274-3.54c0.271-0.632,0.545-1.263,0.823-1.891l8.229,3.645
	C2898.989,5353.082,2898.729,5353.678,2898.474,5354.275z M3172.84,5352.697c-0.259-0.589-0.523-1.177-0.79-1.762l8.188-3.736
	c0.284,0.622,0.564,1.246,0.841,1.873L3172.84,5352.697z M2900.052,5350.714l-8.181-3.752c0.288-0.627,0.579-1.251,0.875-1.874
	l8.127,3.866C2900.596,5349.539,2900.322,5350.125,2900.052,5350.714z M3171.236,5349.185c-0.276-0.583-0.556-1.164-0.839-1.743
	l8.084-3.956c0.301,0.614,0.598,1.231,0.89,1.849L3171.236,5349.185z M2901.722,5347.198l-8.08-3.964
	c0.303-0.618,0.611-1.234,0.922-1.848l8.026,4.072C2902.296,5346.036,2902.007,5346.616,2901.722,5347.198z M3169.536,5345.708
	c-0.292-0.577-0.587-1.151-0.885-1.724l7.982-4.157c0.315,0.606,0.628,1.214,0.936,1.824L3169.536,5345.708z M2903.481,5343.729
	l-7.972-4.177c0.319-0.609,0.642-1.215,0.968-1.82l7.918,4.278C2904.088,5342.581,2903.783,5343.154,2903.481,5343.729z
	 M3167.748,5342.278c-0.307-0.569-0.616-1.137-0.93-1.702l7.871-4.365c0.331,0.597,0.658,1.197,0.982,1.798L3167.748,5342.278z
	 M2905.332,5340.306l-7.861-4.382c0.335-0.601,0.674-1.199,1.017-1.796l7.802,4.486
	C2905.967,5339.176,2905.647,5339.74,2905.332,5340.306z M3165.868,5338.89c-0.32-0.56-0.644-1.117-0.972-1.672l7.752-4.573
	c0.348,0.59,0.692,1.183,1.032,1.778L3165.868,5338.89z M2907.27,5336.934l-7.744-4.586c0.351-0.592,0.705-1.181,1.062-1.768
	l7.683,4.688C2907.934,5335.821,2907.6,5336.376,2907.27,5336.934z M3163.901,5335.553c-0.334-0.551-0.672-1.1-1.014-1.647
	l7.631-4.771c0.363,0.581,0.723,1.165,1.078,1.75L3163.901,5335.553z M2909.295,5333.613l-7.622-4.785
	c0.365-0.582,0.734-1.161,1.107-1.738l7.561,4.883C2909.989,5332.518,2909.64,5333.064,2909.295,5333.613z M3161.85,5332.267
	c-0.349-0.542-0.7-1.082-1.056-1.619l7.504-4.968c0.379,0.572,0.754,1.146,1.124,1.724L3161.85,5332.267z M2911.405,5330.348
	l-7.495-4.981c0.381-0.573,0.765-1.144,1.154-1.711l7.427,5.083C2912.125,5329.272,2911.764,5329.809,2911.405,5330.348z
	 M3159.712,5329.036c-0.363-0.535-0.73-1.067-1.101-1.597l7.379-5.152c0.392,0.561,0.78,1.124,1.165,1.69L3159.712,5329.036z
	 M2913.599,5327.139l-7.362-5.176c0.395-0.562,0.792-1.121,1.194-1.677l7.297,5.269
	C2914.348,5326.081,2913.972,5326.608,2913.599,5327.139z M3157.493,5325.86c-0.378-0.524-0.758-1.047-1.142-1.566l7.238-5.35
	c0.407,0.551,0.811,1.105,1.21,1.662L3157.493,5325.86z M2915.875,5323.988l-7.228-5.363c0.409-0.551,0.822-1.101,1.239-1.647
	l7.156,5.458C2916.65,5322.951,2916.261,5323.468,2915.875,5323.988z M3155.19,5322.744c-0.392-0.516-0.786-1.029-1.184-1.54
	l7.098-5.533c0.421,0.54,0.837,1.082,1.252,1.627L3155.19,5322.744z M2918.232,5320.896l-7.088-5.547
	c0.424-0.541,0.851-1.08,1.281-1.615l7.013,5.642C2919.033,5319.88,2918.631,5320.387,2918.232,5320.896z M3152.805,5319.681
	c-0.404-0.504-0.811-1.006-1.221-1.506l6.953-5.714c0.436,0.53,0.867,1.062,1.295,1.598L3152.805,5319.681z M2920.666,5317.871
	l-6.938-5.732c0.437-0.528,0.875-1.053,1.318-1.576l6.869,5.815C2921.496,5316.873,2921.079,5317.37,2920.666,5317.871z
	 M3150.342,5316.684c-0.418-0.495-0.838-0.987-1.261-1.476l6.807-5.889c0.448,0.518,0.894,1.039,1.335,1.563L3150.342,5316.684z
	 M2923.179,5314.906l-6.79-5.907c0.451-0.518,0.905-1.033,1.363-1.545l6.71,5.998
	C2924.031,5313.934,2923.604,5314.418,2923.179,5314.906z M3147.804,5313.75c-0.429-0.483-0.861-0.963-1.297-1.44l6.648-6.067
	c0.463,0.507,0.921,1.018,1.377,1.531L3147.804,5313.75z M2925.765,5312.012l-6.632-6.085c0.463-0.504,0.929-1.005,1.397-1.504
	l6.559,6.163C2926.645,5311.059,2926.203,5311.534,2925.765,5312.012z M3145.191,5310.884c-0.442-0.473-0.888-0.942-1.336-1.409
	l6.488-6.237c0.476,0.494,0.946,0.992,1.416,1.493L3145.191,5310.884z M2928.426,5309.182l-6.475-6.251
	c0.476-0.493,0.956-0.984,1.438-1.471l6.394,6.334C2929.328,5308.254,2928.876,5308.717,2928.426,5309.182z M3142.505,5308.085
	c-0.456-0.462-0.915-0.922-1.376-1.379l6.33-6.396c0.486,0.48,0.969,0.964,1.45,1.451L3142.505,5308.085z M2931.158,5306.424
	l-6.311-6.417c0.489-0.481,0.98-0.959,1.476-1.434l6.228,6.498C2932.083,5305.52,2931.619,5305.97,2931.158,5306.424z
	 M3139.744,5305.354c-0.468-0.449-0.937-0.896-1.409-1.34l6.16-6.562c0.5,0.469,0.996,0.941,1.489,1.417L3139.744,5305.354z
	 M2933.959,5303.738l-6.143-6.578c0.5-0.467,1.004-0.932,1.51-1.393l6.061,6.653
	C2934.909,5302.857,2934.433,5303.296,2933.959,5303.738z M3136.907,5302.69c-0.476-0.436-0.954-0.868-1.437-1.298l5.988-6.719
	c0.514,0.458,1.025,0.919,1.532,1.385L3136.907,5302.69z M2936.831,5301.125l-5.973-6.732c0.513-0.455,1.029-0.907,1.549-1.356
	l5.882,6.812C2937.8,5300.27,2937.314,5300.696,2936.831,5301.125z M3134.013,5300.109c-0.489-0.425-0.981-0.847-1.476-1.266
	l5.814-6.869c0.523,0.443,1.043,0.889,1.562,1.339L3134.013,5300.109z M2939.765,5298.587l-5.796-6.885
	c0.523-0.441,1.05-0.879,1.579-1.313l5.71,6.957C2940.758,5297.757,2940.26,5298.171,2939.765,5298.587z M3131.043,5297.595
	c-0.497-0.41-0.997-0.818-1.501-1.222l5.631-7.021c0.537,0.431,1.072,0.865,1.603,1.304L3131.043,5297.595z M2942.766,5296.127
	l-5.618-7.031c0.535-0.428,1.073-0.852,1.614-1.273l5.527,7.104C2943.778,5295.323,2943.271,5295.724,2942.766,5296.127z
	 M3128.019,5295.166c-0.51-0.398-1.022-0.794-1.539-1.187l5.451-7.162c0.546,0.416,1.09,0.835,1.631,1.258L3128.019,5295.166z
	 M2945.826,5293.747l-5.433-7.176c0.546-0.413,1.094-0.823,1.645-1.229l5.342,7.243
	C2946.859,5292.969,2946.341,5293.356,2945.826,5293.747z M3124.927,5292.812c-0.521-0.386-1.046-0.77-1.572-1.15l5.268-7.297
	c0.556,0.401,1.109,0.806,1.66,1.213L3124.927,5292.812z M2948.946,5291.446l-5.245-7.313c0.556-0.398,1.114-0.793,1.675-1.186
	l5.154,7.378C2950,5290.695,2949.472,5291.069,2948.946,5291.446z M3121.774,5290.538c-0.53-0.372-1.062-0.741-1.599-1.106
	l5.072-7.435c0.567,0.387,1.133,0.778,1.694,1.172L3121.774,5290.538z M2952.125,5289.227l-5.055-7.446
	c0.566-0.384,1.134-0.765,1.705-1.142l4.962,7.509C2953.197,5288.504,2952.66,5288.864,2952.125,5289.227z M3118.561,5288.345
	c-0.538-0.357-1.079-0.711-1.623-1.062l4.875-7.565c0.579,0.373,1.155,0.75,1.729,1.131L3118.561,5288.345z M2955.36,5287.091
	l-4.863-7.573c0.576-0.37,1.155-0.736,1.736-1.099l4.763,7.637C2956.448,5286.397,2955.903,5286.742,2955.36,5287.091z
	 M3115.294,5286.237c-0.549-0.344-1.1-0.685-1.653-1.021l4.68-7.688c0.587,0.357,1.173,0.719,1.755,1.084L3115.294,5286.237z
	 M2958.646,5285.042l-4.662-7.698c0.585-0.354,1.172-0.705,1.763-1.052l4.562,7.758
	C2959.751,5284.377,2959.197,5284.708,2958.646,5285.042z M3111.975,5284.216c-0.56-0.331-1.12-0.657-1.684-0.98l4.482-7.805
	c0.595,0.342,1.188,0.687,1.779,1.036L3111.975,5284.216z M2961.984,5283.078l-4.463-7.815c0.594-0.339,1.19-0.674,1.789-1.006
	l4.362,7.872C2963.107,5282.441,2962.544,5282.758,2961.984,5283.078z M3108.603,5282.281c-0.568-0.316-1.138-0.628-1.709-0.937
	l4.275-7.92c0.604,0.326,1.207,0.657,1.807,0.99L3108.603,5282.281z M2965.371,5281.202l-4.259-7.929
	c0.604-0.324,1.208-0.644,1.816-0.96l4.151,7.985C2966.508,5280.596,2965.938,5280.897,2965.371,5281.202z M3105.175,5280.431
	c-0.573-0.3-1.148-0.596-1.728-0.889l4.062-8.031c0.614,0.311,1.227,0.626,1.837,0.945L3105.175,5280.431z M2968.804,5279.415
	l-4.052-8.036c0.611-0.308,1.224-0.612,1.84-0.913l3.942,8.091C2969.956,5278.839,2969.379,5279.125,2968.804,5279.415z
	 M3101.703,5278.672c-0.581-0.285-1.164-0.566-1.75-0.843l3.85-8.135c0.624,0.295,1.243,0.594,1.861,0.897L3101.703,5278.672z
	 M2972.28,5277.72l-3.839-8.141c0.618-0.291,1.237-0.578,1.859-0.862l3.736,8.188
	C2973.449,5277.173,2972.863,5277.444,2972.28,5277.72z M3098.189,5277.007c-0.592-0.271-1.184-0.538-1.778-0.8l3.643-8.23
	c0.628,0.278,1.255,0.56,1.88,0.846L3098.189,5277.007z M2975.799,5276.114l-3.628-8.236c0.625-0.275,1.253-0.547,1.882-0.814
	l3.52,8.283C2976.98,5275.598,2976.389,5275.854,2975.799,5276.114z M3094.623,5275.431c-0.595-0.254-1.192-0.504-1.791-0.751
	l3.42-8.324c0.64,0.262,1.276,0.529,1.91,0.8L3094.623,5275.431z M2979.356,5274.602l-3.409-8.329
	c0.633-0.259,1.269-0.515,1.906-0.767l3.309,8.37C2980.558,5274.115,2979.956,5274.356,2979.356,5274.602z M3091.025,5273.951
	c-0.604-0.239-1.21-0.475-1.818-0.707l3.207-8.409c0.642,0.245,1.282,0.494,1.922,0.747L3091.025,5273.951z M2982.968,5273.178
	l-3.192-8.415c0.641-0.243,1.284-0.482,1.929-0.717l3.084,8.455C2984.18,5272.723,2983.573,5272.949,2982.968,5273.178z
	 M3087.383,5272.563c-0.608-0.223-1.219-0.442-1.832-0.657l2.98-8.492c0.65,0.229,1.3,0.461,1.947,0.698L3087.383,5272.563z
	 M2986.617,5271.847l-2.975-8.494c0.647-0.227,1.295-0.448,1.945-0.667l2.868,8.531
	C2987.841,5271.423,2987.228,5271.633,2986.617,5271.847z M3083.707,5271.272c-0.614-0.207-1.231-0.41-1.85-0.608l2.756-8.568
	c0.657,0.211,1.312,0.427,1.965,0.647L3083.707,5271.272z M2990.297,5270.614l-2.751-8.569c0.653-0.21,1.309-0.415,1.966-0.616
	l2.636,8.605C2991.529,5270.223,2990.912,5270.417,2990.297,5270.614z M3079.999,5270.078c-0.617-0.19-1.236-0.376-1.857-0.558
	l2.527-8.638c0.66,0.193,1.318,0.391,1.975,0.593L3079.999,5270.078z M2994.006,5269.478l-2.521-8.64
	c0.658-0.192,1.317-0.38,1.979-0.564l2.41,8.671C2995.25,5269.119,2994.627,5269.296,2994.006,5269.478z M3076.271,5268.985
	c-0.622-0.174-1.247-0.343-1.872-0.509l2.307-8.699c0.664,0.176,1.326,0.356,1.987,0.541L3076.271,5268.985z M2997.747,5268.438
	l-2.296-8.702c0.663-0.175,1.328-0.346,1.995-0.513l2.18,8.732C2998.998,5268.112,2998.371,5268.273,2997.747,5268.438z
	 M3072.52,5267.991c-0.626-0.157-1.254-0.311-1.884-0.459l2.074-8.758c0.669,0.159,1.336,0.321,2.001,0.489L3072.52,5267.991z
	 M3001.512,5267.497l-2.066-8.76c0.667-0.157,1.334-0.31,2.004-0.459l1.956,8.785
	C3002.773,5267.203,3002.142,5267.348,3001.512,5267.497z M3068.743,5267.095c-0.63-0.141-1.262-0.277-1.896-0.41l1.844-8.81
	c0.673,0.141,1.344,0.287,2.013,0.436L3068.743,5267.095z M3005.303,5266.653l-1.841-8.81c0.671-0.14,1.343-0.276,2.018-0.408
	l1.726,8.833C3006.57,5266.393,3005.936,5266.521,3005.303,5266.653z M3064.944,5266.299c-0.636-0.125-1.272-0.245-1.91-0.362
	l1.621-8.853c0.675,0.124,1.349,0.251,2.021,0.383L3064.944,5266.299z M3009.114,5265.911l-1.61-8.854
	c0.674-0.123,1.35-0.241,2.027-0.355l1.496,8.875C3010.388,5265.684,3009.75,5265.795,3009.114,5265.911z M3061.123,5265.601
	c-0.636-0.108-1.273-0.211-1.912-0.311l1.383-8.893c0.68,0.105,1.358,0.216,2.035,0.331L3061.123,5265.601z M3012.942,5265.267
	l-1.379-8.894c0.678-0.105,1.357-0.206,2.039-0.302l1.258,8.912C3014.219,5265.073,3013.58,5265.168,3012.942,5265.267z
	 M3057.288,5265.003c-0.639-0.091-1.279-0.178-1.921-0.261l1.152-8.926c0.683,0.088,1.362,0.181,2.042,0.278L3057.288,5265.003z
	 M3016.783,5264.723l-1.143-8.927c0.68-0.087,1.36-0.17,2.042-0.249l1.027,8.941
	C3018.066,5264.562,3017.424,5264.641,3016.783,5264.723z M3053.438,5264.506c-0.641-0.075-1.284-0.146-1.929-0.211l0.922-8.953
	c0.684,0.071,1.366,0.146,2.046,0.224L3053.438,5264.506z M3020.641,5264.279l-0.911-8.954c0.681-0.069,1.364-0.134,2.048-0.195
	l0.797,8.965C3021.929,5264.151,3021.284,5264.213,3020.641,5264.279z M3049.576,5264.108c-0.645-0.058-1.29-0.112-1.936-0.162
	l0.691-8.974c0.685,0.053,1.367,0.11,2.049,0.171L3049.576,5264.108z M3024.509,5263.935l-0.68-8.975
	c0.682-0.052,1.366-0.099,2.051-0.143l0.566,8.982C3025.8,5263.841,3025.154,5263.886,3024.509,5263.935z M3045.709,5263.81
	c-0.647-0.041-1.295-0.079-1.944-0.112l0.461-8.988c0.685,0.035,1.367,0.075,2.05,0.118L3045.709,5263.81z M3028.385,5263.691
	l-0.449-8.989c0.684-0.034,1.369-0.064,2.055-0.09l0.336,8.994C3029.678,5263.63,3029.031,5263.658,3028.385,5263.691z
	 M3041.826,5263.612c-0.646-0.024-1.294-0.045-1.942-0.062l0.23-8.997c0.686,0.018,1.37,0.04,2.056,0.066L3041.826,5263.612z
	 M3032.261,5263.546l-0.218-8.997c0.683-0.017,1.367-0.029,2.053-0.037l0.105,8.999
	C3033.554,5263.519,3032.907,5263.53,3032.261,5263.546z M3037.943,5263.512c-0.646-0.008-1.294-0.012-1.943-0.012v-9
	c0.687,0,1.372,0.004,2.057,0.013L3037.943,5263.512z"/>
</svg>
