<svg width="131" height="131" viewBox="0 0 262 262" xmlns="http://www.w3.org/2000/svg"><title>Group</title><g transform="translate(1 1)" fill="none" fill-rule="evenodd"><path d="M119.866 10.884c-.39.254-.56.417-.765.49-.367.13-.78.154-1.13.314-.71.323-.954.854-.757 1.59.088.33.232.658.414.946 1.342 2.12 2.7 4.23 4.116 6.443.28-.265.51-.435.68-.653 1.35-1.754 2.686-3.517 4.027-5.277.078-.103.158-.206.233-.313 1.272-1.807.894-2.697-1.3-3.075-.197-.036-.384-.12-.813-.254.385-.23.557-.403.753-.434.343-.054.7-.023 1.053-.023h26.904c.508 0 1.016.03 1.524.05l.066.26c-.175.12-.334.307-.527.35-.425.095-.878.075-1.3.176-.89.213-1.485.744-1.596 1.672-.087.725-.184 1.455-.186 2.183-.013 5.515-.01 11.028-.002 16.54 0 .56.024 1.123.096 1.676.178 1.37.776 1.965 2.163 2.187.424.067.856.092 1.503.16-.287.285-.416.524-.59.562-.336.074-.698.04-1.05.04-9.496.002-18.992.002-28.49 0-.35 0-.71.024-1.05-.04-.15-.027-.264-.244-.517-.498.574-.14.988-.218 1.386-.342.987-.307 1.38-1.043 1.07-2.015-.09-.284-.24-.557-.4-.81-1.533-2.415-3.073-4.823-4.616-7.23-.067-.104-.185-.178-.358-.34l-1.256 1.663c-1.228 1.627-2.46 3.253-3.684 4.882-.313.416-.636.828-.91 1.268-.862 1.382-.495 2.245 1.1 2.663.27.07.527.177 1.037.353-.422.225-.617.42-.813.422-2.55.022-5.1.024-7.65.002-.21-.002-.42-.22-.817-.443.405-.184.547-.28.704-.316 1.78-.42 3.253-1.37 4.367-2.742 2.43-2.998 4.773-6.064 7.087-9.018-.03-.233-.016-.333-.06-.397-1.936-2.924-3.835-5.875-5.847-8.75-.66-.943-1.535-1.78-2.453-2.49-.59-.457-1.436-.595-2.17-.87-.298-.11-.602-.205-.89-.55.213-.084.426-.242.64-.243 3.472-.013 6.945-.008 10.418 0 .12.002.24.08.658.227zm2.844 11.253c2.353 3.573 4.607 7.015 6.885 10.44.406.612.886 1.18 1.377 1.73 1 1.124 2.318 1.52 3.793 1.442 1.2-.066 2.22-.705 2.277-2.048.03-.687.13-1.373.13-2.06.013-5.427.01-10.855.005-16.282 0-.558-.013-1.12-.076-1.676-.176-1.556-.836-2.175-2.442-2.334-2.092-.207-3.85.5-5.136 2.083-2.293 2.828-4.492 5.73-6.81 8.704zm25.04 1.39c0-2.753.008-5.506-.004-8.258-.003-.645-.067-1.29-.11-1.93-.074-1.058-.714-1.726-1.714-1.836-1.16-.13-2.36-.113-3.522.01-.84.09-1.398.7-1.514 1.57-.09.68-.186 1.368-.188 2.052-.015 5.677-.01 11.353-.004 17.03 0 .472.022.948.086 1.415.183 1.34.81 1.995 2.192 2.144.824.09 1.67.08 2.496.006 1.337-.117 1.946-.712 2.142-2.02.096-.635.13-1.284.135-1.927.014-2.752.006-5.505.006-8.257zM16.34 173.407c.224.015.47-.04.586.055.197.16.298.427.464.63.713.876 1.4 1.09 2.463.693.663-.248 1.31-.553 1.925-.9 5.018-2.82 10.028-5.656 15.037-8.492.46-.262.915-.54 1.345-.85 1.15-.827 1.35-1.524.842-2.823-.193-.496-.193-.496-.035-1 .04-.008.085-.024.125-.02.042.007.102.022.12.053 4.43 7.453 8.855 14.907 13.278 22.364.107.18.17.387.334.764-.37-.064-.615-.046-.773-.152-.17-.115-.247-.355-.386-.524-.754-.913-1.464-1.12-2.59-.674-.658.26-1.294.586-1.91.933-4.94 2.78-9.875 5.57-14.808 8.364-.462.26-.9.562-1.36.83-.947.557-1.385 1.346-1.114 2.42.277 1.09 1.064 1.764 2.15 1.885.955.107 1.967.058 2.913-.126 7.376-1.44 14.74-2.93 22.11-4.398.505-.1 1.022-.143 1.533-.212l.186.257c-.23.33-.428.688-.692.99-4.887 5.6-9.782 11.195-14.674 16.79-.376.43-.733.88-1.12 1.298-.877.948-1.197 2.01-.826 3.26.06.203-.038.45-.07.734-.707-.476-3.744-5.212-4.49-6.94-.07-.162-.008-.377-.008-.89.497.424.777.656 1.05.895.87.762 1.45.842 2.37.152.63-.472 1.208-1.035 1.728-1.625 3.463-3.925 6.904-7.868 10.35-11.808.11-.127.19-.28.425-.63-1.09.197-1.977.344-2.856.52-4.316.866-8.63 1.736-12.944 2.616-.696.142-1.39.316-2.068.524-1.39.427-1.75 1.01-1.6 2.443.036.34.4.782-.247.96-.75-.71-16.347-27.063-16.76-28.363zm12.086 16.942c.52-.23 1.323-.503 2.046-.908 5.29-2.964 10.566-5.952 15.84-8.94.424-.24.826-.517 1.22-.8.783-.568 1.008-1.39.673-2.21-.342-.835-.848-1.63-1.416-2.34-.463-.577-1.185-.778-1.936-.46-.733.313-1.478.612-2.17 1-4.977 2.794-9.943 5.607-14.91 8.422-.537.305-1.056.645-1.563.997-.25.175-.512.38-.665.63-.51.84-.337 1.673.144 2.466.583.96 1.01 2.104 2.735 2.142zm-4.757-7.64c.686-.306 1.48-.585 2.2-.99 5.283-2.96 10.557-5.937 15.82-8.933 2.466-1.404 2.657-2.243 1.156-4.593-.118-.184-.242-.367-.387-.53-.638-.718-1.35-.923-2.27-.563-.7.274-1.376.615-2.03.983-4.97 2.796-9.93 5.603-14.89 8.415-.615.348-1.262.68-1.773 1.148-.355.324-.695.86-.708 1.31-.04 1.445.744 2.546 1.866 3.413.226.175.574.2 1.012.34zm224.11-33.602c-.12-.213-.318-.414-.348-.64-.366-2.736-.774-3.18-3.454-3.196-5.9-.036-11.802-.033-17.703 0-2.5.016-2.998.54-3.307 3.087-.03.24-.132.47-.282.986-.203-.456-.34-.65-.372-.863-.045-.305-.015-.623-.015-.935 0-10.272-.003-20.543 0-30.813 0-.5.05-1 .077-1.5l.275-.044c.1.157.26.3.29.47.08.438.07.89.15 1.33.21 1.14.78 1.72 1.895 1.89.512.08 1.038.09 1.558.09 5.814.005 11.628.004 17.442 0 .347 0 .695-.006 1.04-.03 1.497-.11 2.157-.767 2.35-2.325.118-.958.118-.958.463-1.415.473.31.285.8.287 1.198.02 3.35.02 6.698.02 10.047 0 7.1-.007 14.2-.01 21.3v1.267l-.358.096zm-12.542-7.623v-.026c3.25 0 6.5.03 9.748-.017 1.517-.022 2.233-.73 2.368-2.266.086-.97.078-1.964-.006-2.936-.11-1.263-.737-1.883-1.98-2.08-.597-.096-1.206-.154-1.81-.155-5.632-.01-11.264-.01-16.896 0-.518 0-1.04.036-1.554.11-1.215.177-1.762.677-1.992 1.923-.12.65-.118 1.327-.122 1.993-.017 2.72.63 3.418 3.276 3.446 2.99.03 5.98.007 8.968.007zm.014-11.257v-.027c3.25 0 6.5.035 9.748-.013 1.508-.022 2.22-.74 2.357-2.28.083-.927.074-1.873.006-2.803-.1-1.35-.714-2.003-2.01-2.2-.68-.105-1.378-.153-2.068-.155-5.416-.013-10.832-.01-16.247 0-.648 0-1.3.027-1.943.115-1.208.166-1.755.682-1.982 1.932-.118.65-.116 1.328-.12 1.994-.016 2.7.64 3.405 3.29 3.43 2.99.03 5.98.01 8.97.01zM55.772 224.21c.244.027.51-.002.727.088 1.8.75 2.4.59 3.496-1.02.344-.505.65-1.036.954-1.566 2.673-4.657 5.342-9.315 8.004-13.977.346-.606.685-1.22.968-1.857.513-1.156.3-1.96-.673-2.786-.264-.222-.536-.432-.8-.653-.022-.02-.012-.08-.034-.25.203-.033.427-.128.613-.08.242.066.456.244.682.375 4.773 2.776 9.547 5.552 14.32 8.33.26.152.546.29.754.5.097.1.034.358.05.67-.516-.218-.9-.398-1.298-.544-.972-.36-1.668-.203-2.33.597-.413.5-.774 1.056-1.1 1.62-2.895 5.034-5.78 10.073-8.66 15.113-.24.417-.467.842-.663 1.28-.658 1.465-.053 2.81 1.465 3.31.834.275 1.665.237 2.384-.238 1.047-.693 2.08-1.426 3.033-2.244 5.285-4.54 10.54-9.115 15.822-13.66.39-.334.7-.934 1.5-.722-.02.388-.005.77-.066 1.138-1.24 7.46-2.49 14.92-3.736 22.378-.07.43-.113.87-.21 1.294-.326 1.446-.035 2.688 1.13 3.665.093.08.138.213.326.515-.357.028-.637.137-.823.048-.585-.28-1.136-.636-1.7-.963-1.542-.897-3.085-1.79-4.623-2.69-.356-.21-.693-.447-1.004-.65.24-.684.592-.44.912-.357 1.698.434 2.33.154 2.745-1.582.505-2.12.84-4.284 1.214-6.436.627-3.618 1.227-7.24 1.833-10.862.027-.16.004-.33.004-.632-.333.248-.58.407-.802.6-3.88 3.366-7.762 6.734-11.635 10.11-.46.4-.9.83-1.295 1.29-.822.96-.812 1.693-.052 2.698.234.31.748.52.454 1.14-.172-.018-.357.015-.482-.057-7.174-4.16-14.343-8.33-21.513-12.496l.106-.432zm22.688-14.7c-.204-.41-.308-.98-.644-1.223-.902-.654-1.867-1.25-2.88-1.712-.615-.28-1.3-.01-1.753.546-.41.505-.808 1.033-1.133 1.597-2.962 5.14-5.908 10.29-8.852 15.443-.26.453-.497.924-.69 1.41-.394.986-.237 1.814.603 2.46.684.524 1.454.963 2.24 1.31.915.406 1.668.174 2.31-.64.456-.577.853-1.21 1.222-1.852 2.678-4.65 5.343-9.31 8.006-13.97.41-.718.808-1.447 1.175-2.19.17-.344.253-.734.4-1.18zm7.423-190.5c-.49.344-.798.558-1.103.774-1.3.92-1.552 1.747-.927 3.182.22.508.487.998.764 1.48 2.71 4.704 5.427 9.405 8.145 14.106.235.406.478.81.747 1.196.872 1.255 1.76 1.5 3.204.9.38-.158.748-.337 1.384-.625-.16.45-.176.687-.303.818-.173.18-.428.28-.65.407-5.446 3.14-10.89 6.285-16.344 9.415-.35.202-.703.662-1.35.167.328-.3.593-.54.857-.78.99-.91.928-1.88-.17-2.66-.07-.05-.143-.097-.22-.135-2.71-1.36-5.42-2.72-8.22-4.122-.106.313-.22.532-.25.762-.39 2.75-.767 5.503-1.145 8.256-.03.21-.042.426-.052.64-.08 1.72.63 2.266 2.285 1.76.498-.154.498-.154 1.12.242l-7.77 4.484-.24-.14c.056-.226.037-.534.18-.665 1.624-1.493 2.407-3.403 2.744-5.52.515-3.25.99-6.505 1.48-9.76.035-.25.03-.506.04-.72-.08-.11-.115-.212-.18-.244-3.244-1.543-6.476-3.11-9.743-4.603-1.41-.645-2.91-1.042-4.49-.667-.456.108-.893.295-1.348.406-.21.053-.44.01-.736.01.5-.768 6.872-4.688 9.58-5.948.192-.09.442-.052.802.158-.25.244-.496.494-.75.732-1.212 1.13-1.173 2.02.3 2.818 2.25 1.218 4.568 2.31 6.946 3.502.124-.38.252-.64.293-.916.34-2.282.665-4.567.993-6.852.024-.17.042-.34.05-.51.08-1.634-.833-2.283-2.357-1.707-.342.13-.684.61-1.202.06.726-.888 1.81-1.205 2.712-1.775.975-.617 1.994-1.165 2.994-1.742l2.89-1.665 2.89-1.67c1-.578 2-1.154 3-1.73 2.286-1.32 2.286-1.32 3.143-1.115zM72.12 39.426c3.865 1.862 7.594 3.667 11.333 5.45.576.274 1.19.477 1.8.667 1.645.51 3.13.11 4.462-.9.976-.74 1.176-1.564.698-2.713-.26-.63-.58-1.237-.92-1.828-2.642-4.59-5.293-9.172-7.944-13.755-.26-.444-.52-.885-.81-1.31-.982-1.45-1.89-1.664-3.494-.924-2.034.94-3.152 2.565-3.563 4.703-.282 1.466-.498 2.946-.713 4.424-.292 2.02-.557 4.046-.85 6.186zM21.365 124.46c-.282-.158-.528-.258-.73-.413-1.81-1.397-3.61-2.806-5.42-4.206-.272-.21-.55-.42-.852-.585-1.19-.654-2.16-.19-2.372 1.13-.045.295-.013.607-.093.89-.044.158-.245.274-.403.437-.346-.95-.44-7.065-.175-8.966.365-.177.59-.046.63.335.195 1.788 1.226 3.095 2.564 4.17 2.686 2.158 5.417 4.26 8.183 6.43 1.438-.946 2.807-1.834 4.165-2.74 2.048-1.366 4.1-2.724 6.125-4.123 1.618-1.118 3.153-2.323 3.346-4.49.007-.074.08-.16.146-.205.063-.043.16-.044.24-.063.042.012.087.017.125.037.033.018.082.052.082.08.035 3.334.067 6.67.09 10.005.003.243-.057.487-.115.938-.276-.275-.483-.4-.56-.58-.098-.23-.073-.506-.133-.755-.28-1.165-1.138-1.584-2.266-1.105-.237.1-.465.23-.68.372-2.354 1.53-4.705 3.064-7.053 4.6-.135.09-.24.22-.43.394.89.694 1.736 1.357 2.586 2.013 1.468 1.134 2.938 2.266 4.41 3.394.31.236.62.473.953.672 1.276.764 2.16.393 2.485-1.032.142-.618.142-.618.578-.943.284.87.352 17.604.046 19.167-.204-.233-.41-.37-.46-.55-.088-.327-.064-.68-.115-1.02-.207-1.362-.81-1.938-2.21-2.078-.516-.053-1.04-.056-1.56-.056-5.636-.003-11.273-.002-16.91 0-.26 0-.52 0-.78.01-2.08.066-2.68.63-2.88 2.663-.032.34.144.8-.392.91-.076-.02-.122-.023-.16-.044-.03-.018-.07-.053-.076-.085-.036-.21-.088-.42-.088-.628 0-7.066.005-14.13.017-21.195 0-.11.086-.22.226-.55.228.314.47.496.49.7.192 2.074 1.318 2.576 3.22 1.306 1.866-1.245 3.748-2.47 5.62-3.71.134-.09.242-.22.583-.53zm2.944 2.31c-3.24 2.252-6.39 4.436-9.53 6.636-.386.27-.72.616-1.057.948-1.605 1.586-2.003 3.544-1.717 5.68.136 1.018.744 1.61 1.76 1.778.68.112 1.376.178 2.066.18 5.587.014 11.175.01 16.763.002.56 0 1.127-.04 1.68-.118 1.146-.164 1.76-.642 1.897-1.77.098-.82.016-1.717-.23-2.505-.47-1.5-1.464-2.722-2.684-3.71-2.912-2.36-5.864-4.67-8.95-7.12zm188.19 44.748c-.653-.575-.155-.914.022-1.224 1.42-2.486 2.865-4.956 4.306-7.43.232-.397.482-.784.973-1.13.047.203.174.43.12.6-.12.368-.36.694-.497 1.057-.432 1.15-.196 1.994.79 2.743.482.367 1 .695 1.528.998 4.833 2.78 9.67 5.548 14.507 8.316.415.238.84.465 1.273.667 1.43.663 2.32.43 3.28-.852.248-.33.478-.67.846-1.19.133.403.272.6.23.74-.09.285-.272.54-.424.803-3.076 5.286-6.15 10.573-9.236 15.852-.217.37-.292.933-.923.934-.403-.476-.008-.85.104-1.225.46-1.55.09-2.29-1.506-2.667-.97-.23-1.972-.352-2.967-.468-4.767-.558-9.535-1.098-14.303-1.636-.297-.034-.6-.004-1.037-.004.23.36.383.655.585.913 3.073 3.937 6.148 7.872 9.234 11.8.456.578.94 1.14 1.47 1.654.934.91 1.747.908 2.75.05.325-.278.622-.586 1.06-1 .103.35.282.623.208.755-1.21 2.148-2.455 4.28-3.858 6.7-.2-.492-.408-.744-.36-.928.504-1.848-.32-3.304-1.382-4.674-3.833-4.94-7.683-9.87-11.526-14.803-.854-1.096-1.712-2.19-2.555-3.294-.25-.327-.75-.672-.388-1.102.18-.214.704-.247 1.056-.21 3.296.354 6.588.743 9.882 1.118 4.81.548 9.62 1.11 14.435 1.63 2.156.235 3.67-.705 4.435-2.647.46-1.167.266-1.98-.726-2.755-.478-.374-.996-.704-1.523-1.006-4.907-2.82-9.82-5.63-14.735-8.44-.377-.216-.76-.425-1.157-.605-1.29-.585-2.097-.418-3.017.647-.333.388-.61.824-.97 1.318m-75.397 56.364c-.227.473-.395.77-.52 1.087-1.85 4.705-3.7 9.41-5.543 14.117-.208.532-.407 1.07-.568 1.618-.53 1.81-.166 2.514 1.56 3.064.204.064.447.057.61.174.137.096.183.327.34.64h-18.325c.234-.3.337-.51.502-.62.125-.083.33-.033.5-.048 2.09-.186 2.69-.78 2.7-3.013.034-6.322.03-12.644.002-18.966-.008-2.04-.6-2.637-2.568-2.89-.34-.045-.675-.113-1.012-.17.036-.238.036-.284.05-.325.014-.035.043-.092.066-.092 3.405-.04 6.812-.08 10.22-.11.15 0 .303.082.66.183-.317.234-.474.443-.66.474-2.78.464-3.103.8-3.122 3.736-.03 4.908-.018 9.815-.007 14.722.003 1.413.005 2.83.115 4.238.106 1.357.72 1.963 2.007 2.155 1.416.212 2.666-.182 3.496-1.423.577-.862 1.06-1.816 1.45-2.787 2.755-6.898 5.47-13.813 8.22-20.713.177-.445.143-1.197.835-1.17.643.028.646.747.837 1.2 3.022 7.164 6.027 14.336 9.04 21.505.238.567.482 1.133.77 1.674.532 1.005 1.414 1.495 2.47 1.697.324.063.703.045.682.557-.89.334-8.964.386-10.28.056.06-.16.078-.356.182-.445.117-.1.31-.13.473-.148 1.782-.21 2.598-.934 1.826-3.228-.14-.418-.288-.833-.457-1.238-2.067-4.947-4.137-9.89-6.208-14.835-.067-.16-.16-.31-.35-.674m79.736-129.283c-3.704-6.56-7.408-13.12-11.1-19.688-.032-.06.11-.218.282-.54.315.43.564.76.804 1.096 1.02 1.43 1.86 1.66 3.46.925.488-.225.963-.485 1.428-.756 4.932-2.875 9.86-5.753 14.788-8.634.427-.25.85-.508 1.254-.792 1.322-.93 1.586-1.88.958-3.39-.154-.372-.317-.74-.47-1.11-.012-.03.027-.08.084-.23.16.027.414-.01.517.1.21.224.35.522.506.796 3.385 5.925 6.77 11.85 10.142 17.784.194.343.642.682.213 1.3-.22-.184-.43-.308-.573-.486-.283-.35-.49-.765-.796-1.09-.675-.717-1.49-.993-2.44-.575-.572.254-1.15.507-1.692.822-5.127 2.98-10.25 5.975-15.37 8.968-.31.18-.616.373-.91.578-1.415.987-1.668 1.88-.987 3.49.124.29.324.557.405.856.042.158-.097.365-.154.55l-.35.028zm17.91-20.235c-.337-2.032-1.182-3.54-2.517-4.75-.54-.49-1.255-.503-1.91-.233-.703.29-1.39.63-2.047 1.012-4.93 2.863-9.855 5.74-14.776 8.62-.542.317-1.062.672-1.584 1.022-.904.604-1.257 1.502-.842 2.474.51 1.19 1.136 2.355 1.88 3.41.595.845 1.542 1.047 2.53.566.644-.313 1.298-.614 1.917-.974 4.89-2.844 9.777-5.697 14.656-8.56.66-.384 1.336-.773 1.89-1.286.392-.364.59-.94.806-1.302zM42.994 98.603c-.044-.242-.18-.512-.118-.722.602-2.06.4-4.09-.327-6.05-1.244-3.356-2.566-6.68-3.86-10.016-.045-.118-.146-.213-.27-.39-.77.053-1.577.106-2.383.167-2.44.187-4.886.338-7.322.573-2.658.257-5.24.742-6.71 3.34-.763-.283-.457-.65-.272-.98.94-1.67 1.887-3.337 2.83-5.004.88-1.55 1.758-3.098 2.617-4.615.485.028.63.218.49.61-.1.286-.224.568-.297.863-.313 1.258.155 1.916 1.438 2.045.045.004.088.01.13.007l8.05-.46c-.126-.446-.185-.74-.292-1.017-.803-2.075-1.614-4.147-2.425-6.218-.096-.244-.202-.484-.316-.72-.804-1.646-1.91-1.734-3.014-.243-.174.235-.364.458-.674.845-.095-.38-.25-.637-.18-.79.227-.517.533-.998.81-1.49 1.01-1.783 2.01-3.57 3.033-5.34.17-.293.25-.805.91-.548-.022.182-.007.392-.077.565-.572 1.407-.566 2.86-.068 4.24 1.257 3.484 2.614 6.93 3.94 10.414.695 0 1.287.035 1.873-.007 3.513-.247 7.025-.506 10.536-.777.598-.046 1.19-.17 1.784-.26 1.193-.18 2.194-.716 2.978-1.665.233-.28.446-.73.894-.25-.51 1.425-4.81 8.893-5.588 9.63-.052-.29-.145-.513-.113-.714.043-.252.208-.48.28-.73.313-1.1-.2-1.91-1.32-2.076-.296-.042-.6-.037-.9-.02-2.788.17-5.574.348-8.36.53-.12.007-.236.07-.424.13.08.3.13.595.238.867 1.026 2.597 2.062 5.19 3.097 7.782.098.24.196.486.32.715.696 1.294 1.67 1.418 2.674.357.228-.24.483-.458.74-.67.03-.024.148.06.224.094-.148.922-2.362 5.04-4.573 7.996M199.52 226.646c-.74.86-7.593 4.82-9.423 5.496.12-.365.138-.64.283-.81.278-.323.66-.562.943-.884.58-.658.615-1.28.07-1.973-.342-.436-.747-.848-1.196-1.176-4.554-3.326-9.122-6.63-13.69-9.937-.097-.07-.23-.093-.51-.2.09.744.155 1.395.247 2.042.692 4.86 1.387 9.718 2.087 14.576.05.338.13.67.224 1 .405 1.425 1.02 1.8 2.502 1.528.3-.056.59-.193.888-.21.167-.01.345.148.54.24-.684.73-5.46 3.488-7.046 4.052.075-.343.043-.67.192-.806 1.22-1.122 1.354-2.556 1.18-4.03-.364-3.05-.793-6.094-1.213-9.138-.636-4.61-1.29-9.215-1.925-13.824-.05-.362-.007-.737-.007-1.053.747-.368 1.09.147 1.484.43 5.07 3.647 10.13 7.31 15.19 10.965 1.407 1.016 2.833 2.007 4.22 3.047 1.24.93 2.55 1.26 4.05.674.204-.08.47-.01.91-.01m-25.634-179.55c.492.217.973.46 1.477.643 1.255.456 2.083.245 2.903-.78.444-.556.836-1.155 1.204-1.76 2.877-4.75 5.743-9.507 8.61-14.26.273-.458.542-.92.776-1.396.705-1.437.46-2.344-.886-3.31-.347-.25-.718-.468-1.07-.697.336-.653.668-.386.973-.22 1.872 1.03 3.74 2.062 5.61 3.093 1.034.572 2.074 1.133 3.097 1.722.24.14.418.374.87.79-.58-.037-.83-.005-1.042-.078-.473-.16-.914-.413-1.39-.556-.873-.26-1.65-.05-2.233.624-.41.472-.795.97-1.116 1.5-3.11 5.128-6.206 10.264-9.3 15.4-.16.265-.284.55-.438.82-.714 1.246-.52 2.102.827 3.214.34.282.716.53 1.072.797.022.017.007.08.012.15-.256.488-.586.203-.888.037-2.23-1.225-4.455-2.456-6.682-3.686-.755-.417-1.52-.82-2.257-1.265-.174-.107-.25-.36-.37-.547l.238-.237" fill="#FFF"/><circle stroke="#FFF" stroke-width="2" cx="130" cy="130" r="130"/><circle fill="#000" cx="130" cy="130" r="9.512"/><text font-family="Letra Pro" font-size="7" font-weight="bold" fill="#FFF"><tspan x="116" y="192">• 2015 •</tspan></text><text font-family="Letra Pro" font-size="6" font-weight="bold" fill="#FFF"><tspan x="105" y="184">HEBE OF LEEDS</tspan></text><circle stroke="#979797" fill="#D8D8D8" cx="129" cy="129" r="2"/></g></svg>