<svg width="86" height="91" viewBox="0 0 90 91" xmlns="http://www.w3.org/2000/svg"><title>Group + Response</title><g fill="none" fill-rule="evenodd"><g fill="#0A0B09"><path d="M42.81 10.606c-.048 0-.093-.014-.14-.027l-9.134-1.99c-.35-.078-.57-.414-.494-.763.074-.348.42-.58.768-.503l9.136 2.003c.347.078.568.412.493.76-.067.31-.334.52-.63.52"/><path d="M42.807 10.606c-.297 0-.564-.208-.63-.518-.077-.35.143-.683.494-.76l9.138-2.004c.347-.078.692.155.768.503.076.35-.144.685-.493.763l-9.137 1.99c-.047.012-.095.026-.14.026M39.578 34.825c-.165 0-.33-.066-.456-.194-.253-.26-.253-.658 0-.918l3.23-3.227c.25-.247.66-.247.913 0 .252.257.252.657 0 .915l-3.23 3.23c-.126.13-.29.195-.457.195"/><path d="M46.037 34.825c-.166 0-.33-.066-.456-.194l-3.23-3.23c-.252-.258-.252-.658 0-.915.253-.247.662-.247.915 0l3.23 3.227c.25.26.25.66 0 .92-.128.127-.293.193-.458.193M56.708 1.718H28.292c-.357 0-.646-.284-.646-.645 0-.363.29-.647.646-.647h28.416c.357 0 .646.284.646.647 0 .36-.29.645-.646.645M54.125 5.593h-23.25c-.357 0-.646-.284-.646-.645 0-.363.29-.647.645-.647h23.25c.357 0 .646.285.646.648 0 .36-.29.645-.645.645"/><path d="M54.124 5.593c-.123 0-.246-.04-.357-.102-.297-.207-.377-.606-.18-.905L56.172.71c.197-.295.598-.373.896-.18.297.208.377.607.18.904L54.662 5.31c-.125.18-.33.283-.538.283M30.875 5.593c-.207 0-.41-.102-.536-.284l-2.6-3.876c-.2-.297-.12-.696.177-.903.296-.193.696-.115.895.18l2.6 3.875c.197.3.12.698-.178.906-.11.064-.235.103-.36.103M56.708 39.176H28.292c-.357 0-.646-.284-.646-.646 0-.36.29-.644.646-.644h28.416c.357 0 .646.284.646.644 0 .362-.29.646-.646.646M54.125 35.3h-23.25c-.357 0-.646-.283-.646-.645 0-.36.29-.644.645-.644h23.25c.357 0 .646.285.646.645 0 .362-.29.646-.645.646"/><path d="M56.708 39.176c-.208 0-.412-.103-.537-.284l-2.582-3.875c-.198-.297-.118-.696.18-.904.295-.194.697-.116.894.182l2.584 3.875c.197.297.117.696-.18.903-.11.066-.234.103-.358.103M28.29 39.176c-.122 0-.245-.037-.356-.103-.297-.207-.377-.606-.18-.903l2.584-3.875c.196-.298.598-.376.895-.182.297.208.377.607.18.904l-2.584 3.875c-.126.18-.33.284-.54.284M42.807 20.293c-5.324 0-9.42-6.214-10.195-15.45L33.9 4.73C34.613 13.267 38.193 19 42.806 19c4.616 0 8.196-5.733 8.912-14.273l1.285.117c-.775 9.235-4.873 15.45-10.198 15.45M33.9 34.553l-1.288-.116C33.387 25.2 37.484 19 42.807 19c5.326 0 9.424 6.2 10.198 15.437l-1.286.116c-.716-8.54-4.296-14.26-8.913-14.26-4.61 0-8.19 5.72-8.908 14.26"/><path d="M41.854 24.323c-.356 0-.646-.285-.646-.647v-1.29c0-.363.29-.647.646-.647.357 0 .646.283.646.646v1.29c0 .362-.29.647-.646.647M43.146 26.905c-.357 0-.646-.284-.646-.644V24.97c0-.36.29-.645.646-.645.356 0 .646.285.646.645v1.293c0 .36-.29.645-.646.645M41.854 29.49c-.356 0-.646-.285-.646-.647V27.55c0-.36.29-.645.646-.645.357 0 .646.286.646.646v1.293c0 .362-.29.646-.646.646"/></g><text font-family="Helvetica Neue" font-size="20" font-weight="260" fill="#000" transform="translate(-1 0)"><tspan x=".16" y="66">Response</tspan> <tspan x="25.17" y="90">time</tspan></text></g></svg>