<svg width="401" height="61" viewBox="0 0 401 61" xmlns="http://www.w3.org/2000/svg"><g fill="none"><path d="M3.436 3.26v.983c.245-.368.49-.736.982-.982.49-.243.982-.243 1.472-.243.613 0 1.104.123 1.595.368.49.245.86.49 1.104.86.243.367.49.735.61 1.226.123.49.246.983.246 1.473S9.323 8.047 9.2 8.415c-.122.49-.367.86-.612 1.227-.246.37-.614.615-1.105.86-.49.245-.982.368-1.472.368H5.4s-.49-.123-.736-.245c-.245-.123-.49-.245-.613-.368-.243-.123-.366-.368-.49-.614v3.927H2.334V3.015h1.104v.246zm4.54 2.7c-.124-.368-.246-.614-.37-.86-.244-.244-.49-.49-.735-.612-.243-.123-.61-.245-1.102-.245-.368 0-.736.123-1.104.245-.245.123-.49.368-.736.613s-.368.616-.368.984c-.124.368-.124.736-.124 1.104 0 .368 0 .736.123 1.104l.366.983c.245.245.49.49.736.614s.613.244 1.104.244c.49 0 .736-.123 1.104-.245.37-.123.492-.37.737-.615s.245-.613.368-.982.123-.735.123-1.103c0-.49 0-.86-.123-1.227zm2.7-.368c.122-.49.367-.86.735-1.227.37-.368.738-.613 1.106-.86.368-.245.982-.367 1.595-.367s1.105.123 1.596.368c.49.245.86.49 1.104.86.367.367.49.735.735 1.226.123.49.245.982.245 1.595s-.123 1.104-.245 1.595c-.123.49-.368.86-.736 1.227-.37.366-.738.61-1.106.857-.368.245-.982.245-1.595.245s-1.105-.123-1.596-.245c-.49-.122-.86-.49-1.104-.86-.367-.367-.49-.735-.735-1.226-.123-.49-.245-.98-.245-1.594s.122-1.104.245-1.595zm1.35 2.822c.122.368.244.613.49.86l.736.613c.245.123.613.245.982.245s.613-.123.982-.245c.245-.123.49-.368.736-.614.245-.245.368-.49.49-.86s.124-.735.124-1.226c0-.49 0-.86-.123-1.227-.123-.368-.245-.614-.49-.86-.246-.244-.492-.49-.737-.612-.245-.123-.613-.245-.982-.245s-.613.123-.982.245c-.245.123-.49.368-.736.613s-.368.493-.49.86-.124.737-.124 1.228c0 .49 0 .86.123 1.227zM25.52 10.99l-1.594-6.01-1.472 6.01h-1.35L18.65 3.385H20l1.718 6.258 1.472-6.258h1.35l1.595 6.258 1.718-6.258h1.35L26.75 10.99h-1.23zm10.43-.49c-.612.49-1.226.614-2.208.614-.614 0-1.104-.123-1.595-.245-.49-.247-.86-.493-1.104-.86-.245-.37-.49-.737-.736-1.228-.123-.49-.245-.982-.245-1.595 0-.614.123-1.104.245-1.595.123-.49.368-.86.736-1.227.368-.368.736-.613 1.104-.86.49-.244.86-.244 1.472-.244.734 0 1.225.124 1.716.37.49.244.86.613 1.104 1.103.246.49.492.86.614 1.472.123.49.123.982.123 1.472h-5.644c0 .368 0 .613.123.982.123.244.245.612.368.735l.736.614c.245.244.613.244 1.104.244.49 0 .982-.123 1.35-.368.368-.245.613-.614.613-1.104h1.227c-.244.613-.612 1.226-1.103 1.717zm-.367-4.908c-.123-.245-.245-.49-.49-.736-.246-.245-.37-.368-.737-.49-.245-.124-.49-.124-.86-.124s-.612 0-.858.123-.49.245-.613.49-.368.37-.49.737l-.246.86h4.415c.122-.37 0-.615-.123-.86zm3.926-2.33v1.594c.243-.614.734-1.104 1.102-1.35.49-.245.982-.49 1.718-.368v1.35c-.49 0-.98.123-1.226.245-.368.123-.613.368-.86.613-.244.245-.367.614-.49.982s-.123.86-.123 1.35v3.436h-1.225V3.507h1.104V3.26zm8.955 7.238c-.613.49-1.227.614-2.21.614-.613 0-1.103-.123-1.594-.245-.49-.247-.86-.493-1.103-.86-.245-.37-.49-.737-.736-1.228-.122-.49-.244-.982-.244-1.595 0-.614.123-1.104.245-1.595.124-.49.37-.86.737-1.227.368-.368.736-.613 1.104-.86.49-.244.86-.244 1.473-.244.736 0 1.227.124 1.718.37.49.244.86.613 1.105 1.103s.49.86.613 1.472c.122.49.122.982.122 1.472h-5.644c0 .368 0 .613.123.982.123.244.245.612.37.735l.734.614c.245.244.614.244 1.104.244.49 0 .98-.123 1.35-.368.367-.245.612-.614.612-1.104h1.227c-.245.613-.613 1.226-1.104 1.717zm-.368-4.908c-.123-.245-.245-.49-.49-.736-.246-.245-.37-.368-.737-.49-.244-.124-.49-.124-.858-.124s-.613 0-.86.123-.49.245-.612.49-.368.37-.49.737l-.246.86h4.417c.125-.37 0-.615-.12-.86zm8.466 5.4v-.983c-.245.366-.49.734-.982.857-.49.245-.98.245-1.47.245-.614 0-1.105-.123-1.596-.368-.49-.245-.86-.49-1.104-.86-.244-.367-.49-.735-.612-1.226-.122-.492-.245-.983-.245-1.473s.123-1.104.245-1.472c.123-.49.368-.86.613-1.227.247-.368.615-.614 1.106-.86.49-.244.982-.367 1.472-.367h.613s.49.123.737.245c.245.123.49.245.613.368.122.123.367.368.49.614V.437h1.227v10.554h-1.103zm-4.54-2.823c.124.366.246.612.37.857.244.245.49.49.735.614s.612.246 1.103.246c.37 0 .737-.123 1.105-.245.245-.122.49-.367.736-.613.246-.245.37-.613.37-.982.123-.368.123-.736.123-1.104 0-.367 0-.735-.123-1.103l-.367-.982c-.245-.245-.49-.49-.736-.614s-.613-.244-1.104-.244c-.368 0-.736.123-1.104.245-.247.124-.493.37-.738.615-.123.245-.245.613-.368.982-.123.368-.123.736-.123 1.104 0 .614 0 .98.124 1.228zM65.033.44v3.925c.245-.368.49-.736.982-.982.49-.245.982-.245 1.472-.245.613 0 1.104.123 1.595.368.49.245.86.49 1.104.86.245.367.49.735.613 1.226.12.49.244.982.244 1.472s-.123 1.104-.245 1.472c-.124.49-.37.86-.614 1.227-.245.368-.613.614-1.104.86-.49.244-.982.367-1.472.367h-.613c-.245 0-.49-.123-.736-.245-.245-.123-.49-.245-.613-.368-.245-.123-.368-.368-.49-.614v.982H63.93V.438h1.102zm4.54 5.52c-.123-.368-.245-.614-.368-.86-.245-.244-.49-.49-.736-.612s-.614-.245-1.105-.245c-.368 0-.736.123-1.104.245-.245.123-.49.368-.736.613s-.368.616-.368.984c-.123.368-.123.736-.123 1.104 0 .368 0 .736.123 1.104l.368.983c.245.245.49.49.736.614s.612.244 1.103.244c.49 0 .736-.123 1.104-.245.368-.123.49-.37.736-.615.245-.245.245-.613.368-.982.125-.367.125-.735.125-1.103 0-.49 0-.86-.123-1.227zm5.89 6.012c-.124.368-.246.736-.49.982-.125.245-.247.49-.493.613-.123.123-.368.245-.613.368s-.49.123-.736.123h-.49c-.246 0-.246 0-.37-.123v-1.227l.37.123h.367c.245 0 .49 0 .613-.243.122-.123.244-.245.367-.49l.49-1.228L71.41 3.26h1.474l2.21 6.26 2.085-6.26h1.35l-3.07 8.712zm4.662-6.993V3.382h1.595V4.98h-1.595zm1.717 4.292v1.595h-1.595V9.273h1.595z" fill="#181818"/><path d="M.368 60.07v-2.82l3.68-.615V30.5l-3.68-.613v-2.945H12.27v2.945l-3.68.613v26.135h11.533l.368-3.804h3.806v7.364H.37v-.122H.367zm27.362 0v-2.82l3.68-.615V30.5l-3.68-.613v-2.945h25.4v7.975h-3.805l-.368-4.417H35.95v10.675h12.64v3.558H35.95v11.902h13.375l.368-4.417h3.804v7.975H27.73v-.122zm29.693 0v-2.82l3.68-.615V30.5l-3.68-.613v-2.945h25.4v7.975h-3.805L78.65 30.5H65.644v10.675h12.638v3.558H65.644v11.902h13.374l.368-4.417h3.804v7.975H57.423v-.122zm43.56-33.25c4.293 0 7.852 1.35 10.428 4.048 2.58 2.7 3.928 6.135 3.928 10.307v4.54c0 4.294-1.35 7.73-3.926 10.307-2.576 2.7-6.134 3.926-10.428 3.926H87.117v-2.822l3.68-.613V30.378l-3.68-.614V26.82h13.865zm-5.646 3.557v26.135h5.644c3.07 0 5.523-.982 7.24-3.067 1.72-1.963 2.7-4.663 2.7-7.73v-4.54c0-3.068-.86-5.644-2.7-7.73-1.717-1.963-4.17-3.068-7.24-3.068H95.34zm48.1 6.258H140l-.86-4.785c-.735-.613-1.594-1.104-2.698-1.472-1.104-.368-2.454-.613-3.926-.613-2.33 0-4.172.49-5.52 1.472-1.228.982-1.964 2.33-1.964 3.926 0 1.472.613 2.7 1.963 3.558 1.35.984 3.436 1.843 6.258 2.58 3.436.86 6.135 2.085 7.975 3.803 1.84 1.718 2.7 3.804 2.7 6.258 0 2.7-1.105 4.786-3.314 6.504-2.21 1.595-5.03 2.454-8.59 2.454-2.576 0-4.784-.368-6.747-1.227-1.963-.86-3.558-1.962-4.785-3.312v-6.135h3.313l.86 4.785c.858.736 1.84 1.35 3.066 1.718 1.23.49 2.58.736 4.296.736 2.21 0 4.05-.49 5.4-1.47 1.35-.983 1.962-2.21 1.962-3.927 0-1.472-.614-2.822-1.718-3.804-1.105-.982-3.19-1.84-6.013-2.577-3.558-.86-6.258-2.086-8.22-3.68-1.964-1.596-2.946-3.682-2.946-6.136 0-2.577 1.106-4.785 3.315-6.503s5.03-2.577 8.59-2.577c2.33 0 4.416.368 6.38 1.227 1.962.86 3.435 1.718 4.54 2.945v6.257h.122zm29.937-9.816c4.294 0 7.853 1.35 10.43 4.047 2.576 2.7 3.925 6.135 3.925 10.307v4.54c0 4.294-1.35 7.73-3.928 10.307-2.577 2.7-6.135 3.927-10.43 3.927H159.51v-2.822l3.68-.613V30.378l-3.68-.614V26.82h13.864zm-5.767 3.556V56.51h5.644c3.07 0 5.523-.98 7.24-3.066 1.72-1.963 2.7-4.663 2.7-7.73v-4.54c0-3.068-.86-5.644-2.7-7.73-1.717-1.963-4.17-3.068-7.24-3.068h-5.642zm21.964 26.75l2.456-.37L203.56 26.82h3.803l11.41 29.938 2.455.368v2.822h-9.57v-2.822l2.453-.49-2.207-6.136h-13.13l-2.208 6.135 2.454.49v2.823h-9.45v-2.822zm10.676-10.308h10.552l-5.153-14.234h-.123l-5.275 14.233zm46.503-20v7.36h-3.805l-.368-3.803h-7.362V56.51l3.68.614v2.822h-11.9v-2.822l3.68-.614V30.377h-7.362l-.368 3.804h-3.804v-7.36h27.61zm-1.964 30.306l2.454-.368 11.533-29.94h3.804l11.41 29.94 2.455.368v2.822h-9.57v-2.822l2.453-.49-2.21-6.136H253.99l-2.21 6.135 2.455.49v2.823h-9.448v-2.822zm10.552-10.307h10.553l-5.152-14.234h-.124l-5.276 14.233zm67.853-13.375l-10.797 26.503h-2.945l-10.675-26.503h-.122l.49 13.374v9.57l3.683.613v2.82H290.8V57l3.68-.614v-26.13l-3.68-.615v-2.943h9.447L310.8 53.69h.122l10.553-26.993h9.448v2.945l-3.68.615V56.39l3.68.613v2.822h-11.78v-2.822l3.682-.613v-9.57l.368-13.375zm11.044-3.68v-2.946h11.902v2.944l-3.68.613v26.135l3.68.614v2.822h-11.902v-2.822l3.68-.614v-26.13l-3.68-.614zm15.092 30.306v-2.82l3.68-.615V30.5l-3.68-.613v-2.945h11.902v2.945l-3.68.613v26.135h11.533l.37-3.804h3.803v7.364h-23.927v-.122zm27.24 0v-2.82l3.68-.615V30.5l-3.68-.613v-2.945h11.9v2.945l-3.68.613v26.135h11.534l.367-3.804h3.804v7.364h-23.924v-.122z" fill="#000"/></g></svg>