<?xml version="1.0" encoding="UTF-8" standalone="no"?>
<svg width="79px" height="110px" viewBox="0 0 79 110" version="1.1" xmlns="http://www.w3.org/2000/svg" xmlns:xlink="http://www.w3.org/1999/xlink" xmlns:sketch="http://www.bohemiancoding.com/sketch/ns">
    <!-- Generator: Sketch 3.3.2 (12043) - http://www.bohemiancoding.com/sketch -->
    <title>Imported Layers</title>
    <desc>Created with Sketch.</desc>
    <defs></defs>
    <g id="Stories" stroke="none" stroke-width="1" fill="none" fill-rule="evenodd" sketch:type="MSPage">
        <g id="Artboard-1" sketch:type="MSArtboardGroup" transform="translate(-3069.000000, -591.000000)" fill="#000000">
            <g id="Group-+-Tap-to-expand--Copy" sketch:type="MSLayerGroup" transform="translate(2868.000000, 491.000000)">
                <g id="Group" sketch:type="MSShapeGroup">
                    <g id="Imported-Layers" transform="translate(201.000000, 100.000000)">
                        <path d="M70,70.065052 C69.9985285,70.065052 69.9985285,70.0665248 69.997057,70.0665248 C69.9911711,80.9702152 69.9793992,92.091891 69.9705703,103 L69.9720418,102.998527 C69.9808707,92.091891 69.9911711,80.9702152 70,70.065052 M23.2832473,67 C21.1907935,67 19.0953967,67.2047296 17,67.6878324 C19.0953967,67.2047296 21.189322,67 23.2817758,67 C28.9911433,67 34.688739,68.5200065 40.3848631,70.0400131 C46.0824588,71.5585468 51.7800544,73.0785533 57.4879505,73.0785533 C51.7800544,73.0785533 46.0824588,71.5585468 40.3863346,70.0400131 C34.6902105,68.5200065 28.9926148,67 23.2832473,67" id="Fill-1"></path>
                        <path d="M26.9886777,95.581758 C26.8797008,95.6172023 26.7636474,95.6356333 26.6433482,95.6356333 L26.6405176,95.6356333 L26.4947432,95.6200378 L26.6391023,95.637051 C26.7608168,95.637051 26.8782855,95.6172023 26.9886777,95.581758 M27,95.5775047 L26.9985847,95.5789225 L27,95.5775047 M18.8522038,95.3449905 C18.153053,95.4017013 17.4652244,95.4810964 16.7972099,95.5845936 L15.6989486,95.7561437 L16.7957946,95.5845936 C17.4652244,95.4825142 18.153053,95.4017013 18.8522038,95.3449905 M23.7873029,95.3293951 C24.6704408,95.3946125 25.5450869,95.4952741 26.4933279,95.6271267 L26.4933279,95.6257089 C25.5450869,95.4952741 24.6704408,95.3946125 23.7873029,95.3293951 M21.4280226,93 C19.7183583,93 18.0426607,93.1275992 16.450465,93.3728733 L13.888799,93.7698488 L13.888799,93.7755198 C13.382127,93.8861059 13,94.3355388 13,94.8742911 C13.0014153,95.4910208 13.5066721,95.9971645 14.1223211,96 L14.2369592,95.9829868 L14.1237364,95.9985822 C13.5066721,95.9957467 13.0014153,95.4924386 13.0014153,94.8728733 C13.0014153,94.3355388 13.3835423,93.8861059 13.8902143,93.7755198 L13.8902143,93.7712665 L16.4518803,93.3728733 C18.044076,93.129017 19.7197736,93.0014178 21.4280226,93.0014178 L21.4520825,93.0014178 L21.4704812,93.0014178 C22.8065103,93.0014178 24.1298019,93.0964083 25.4431864,93.2381853 C24.1298019,93.0949905 22.8065103,93.0014178 21.4690659,93.0014178 L21.4506672,93.0014178 C21.4435908,93.0014178 21.4365144,93 21.4280226,93" id="Fill-2"></path>
                        <path d="M54.8869697,77.9030899 C54.8883852,77.9044944 54.8898007,77.9044944 54.8898007,77.9044944 C54.8898007,77.9044944 54.8883852,77.9044944 54.8869697,77.9030899 M61.1660937,77.7963483 C59.9558478,77.9311798 58.708799,78 57.4376869,78 L57.3909757,78 C56.5530042,77.9985955 55.7206947,77.9648876 54.8912162,77.9044944 C55.7206947,77.9648876 56.5530042,78 57.3909757,78 L57.4490108,78 C58.7158765,78 59.9586787,77.9311798 61.1660937,77.7963483 M61.1887416,77.7935393 C61.1887416,77.7949438 61.1873261,77.7949438 61.1873261,77.7949438 C61.1873261,77.7949438 61.1887416,77.7949438 61.1887416,77.7935393 M64.9567822,77.2401685 L62.9680154,77.5463483 L64.9567822,77.2401685 M65.3432116,77.1348315 C65.2243102,77.1882022 65.0955004,77.2219101 64.9581976,77.2331461 C65.0955004,77.2233146 65.2243102,77.1882022 65.3432116,77.1348315 M66,76.119382 L66,76.1348315 L66,76.119382 M66,76.0842697 L66,76.119382 L66,76.0842697 M65.997169,76.0280899 C65.997169,76.0393258 65.9985845,76.0505618 65.9985845,76.0632022 C65.9985845,76.0505618 65.997169,76.0393258 65.997169,76.0280899 M52.1324217,75.3581461 C51.5081896,75.3581461 51.0014433,75.8623596 51.0000278,76.4803371 C50.9957813,77.0828652 51.4784642,77.5758427 52.0828794,77.6011236 L52.0842949,77.6067416 L52.0828794,77.5997191 C51.4798797,77.5758427 50.9971968,77.0842697 51.0014433,76.4803371 C51.0028588,75.863764 51.509605,75.3581461 52.1324217,75.3581461 M64.8916695,75 L64.9114864,75 L64.8916695,75 M64.8718526,75 L64.5392119,75.0547753 L62.0479454,75.4382022 C61.7096428,75.4901685 61.3685091,75.5365169 61.023129,75.5772472 C61.3685091,75.5365169 61.7096428,75.4901685 62.0479454,75.4382022 L64.5406274,75.0547753 L64.8718526,75" id="Fill-3"></path>
                        <path d="M44.4950683,94.5043478 C44.4950683,94.5118577 44.4936773,94.5193676 44.4936773,94.5253755 C44.4922863,94.5328854 44.4922863,94.5388933 44.4908953,94.5449012 C44.4922863,94.5388933 44.4922863,94.5328854 44.4936773,94.5268775 C44.4936773,94.5193676 44.4950683,94.5118577 44.4950683,94.5043478 M34.001391,94.0147036 C34.001391,94.0147036 34.001391,94.0162055 34,94.0162055 L34.1418816,94.8663241 L35.7902124,95 L34.1418816,94.8663241 L34.001391,94.0147036 M34.7580931,93.1961265 C34.5104957,93.5220553 34.2628983,93.7894071 34.016692,94.0026877 C34.2642893,93.7909091 34.5104957,93.5220553 34.7580931,93.1961265 M40.2344461,91.1894862 L44.5687911,91.5409486 L44.5674001,91.5409486 L40.2344461,91.1894862 M35.976606,90.5196047 C35.8361153,91.0678261 35.6594588,91.5694862 35.4494183,92.0185771 C35.2421598,92.4736759 35.0098634,92.8656917 34.7580931,93.1961265 C35.0126454,92.8656917 35.2435508,92.4721739 35.4508093,92.0185771 C35.6594588,91.5694862 35.8361153,91.0678261 35.976606,90.5196047 M41.4195751,88.033834 L42.8495195,88.1494862 L41.4195751,88.033834 M40.0897825,87.9271937 L40.0897825,87.9301976 L40.0897825,87.9271937 M36.2673242,87.6252964 C36.2812342,88.0398419 36.2784522,88.415336 36.2548053,88.7547826 C36.2116844,89.3841107 36.1198786,89.9713834 35.976606,90.5196047 C36.1198786,89.9698814 36.2116844,89.3841107 36.2561963,88.7547826 C36.2812342,88.4168379 36.2826252,88.0398419 36.2673242,87.6252964 M34.6927162,83.7516996 C34.6050835,84.1602372 34.5410976,84.4966798 34.5007587,84.7670356 C34.4590288,85.0328854 34.4284269,85.2912253 34.4131259,85.5450593 C34.392261,85.8124111 34.383915,86.0932806 34.386697,86.3816601 C34.389479,86.6715415 34.40478,87.0335178 34.4339909,87.4675889 L35.4146434,87.5471937 L34.4353819,87.4675889 C34.406171,87.0335178 34.389479,86.6715415 34.388088,86.3816601 C34.385306,86.0917787 34.393652,85.8124111 34.4131259,85.5450593 C34.4298179,85.2927273 34.4590288,85.0343874 34.5007587,84.7655336 C34.5424886,84.4981818 34.6050835,84.1617391 34.6927162,83.7516996 M43.417046,80.4067984 C43.428174,80.4128063 43.440693,80.4188142 43.4532119,80.4263241 C43.837127,80.6366008 44.1932221,80.8558893 44.5173242,81.0826877 L44.5173242,81.0811858 C44.1932221,80.8558893 43.838518,80.6366008 43.4532119,80.4263241 C43.440693,80.4188142 43.428174,80.4128063 43.417046,80.4067984 M40.8297926,80.3542292 C40.7421598,80.4158103 40.662873,80.4849012 40.5891502,80.56 C40.662873,80.4849012 40.7421598,80.4158103 40.8297926,80.3542292 M41.8327011,80.0328063 C41.6741275,80.0328063 41.5280728,80.0493281 41.3931462,80.0838735 C41.5280728,80.0493281 41.6755185,80.0328063 41.8327011,80.0328063 C41.8980779,80.0328063 41.9662367,80.0358103 42.0357865,80.0418182 C42.0761254,80.0448221 42.1164643,80.0478261 42.1554122,80.052332 C42.1164643,80.0478261 42.0775164,80.0448221 42.0371775,80.0418182 C41.9676277,80.0358103 41.8980779,80.0328063 41.8327011,80.0328063 M44.0833333,76.4761265 C44.3921345,76.5932806 44.6981538,76.7299605 45,76.887668 C44.6981538,76.7299605 44.3935255,76.5932806 44.0833333,76.4761265 M40.6072332,76.0510672 C40.1996712,76.1081423 39.8213202,76.2117787 39.4693981,76.3634783 C38.7697269,76.6698814 38.1771624,77.0904348 37.6944866,77.6296443 C37.2132018,78.1703557 36.8404148,78.7936759 36.5761254,79.5041107 C36.3118361,80.2130435 36.1532625,80.9445059 36.0990137,81.7 C36.0753667,82.0589723 36.0572838,82.4269565 36.0447648,82.8054545 C36.0350278,83.1839526 36.0336368,83.535415 36.0392008,83.8598419 L35.4174254,83.8102767 L36.0405918,83.8613439 C36.0336368,83.535415 36.0350278,83.1839526 36.0475468,82.8054545 C36.0572838,82.4269565 36.0767577,82.0589723 36.1017956,81.698498 C36.1532625,80.9445059 36.3118361,80.2130435 36.5761254,79.5026087 C36.8404148,78.7936759 37.2132018,78.1703557 37.6944866,77.6296443 C38.1771624,77.0919368 38.7697269,76.6698814 39.4707891,76.3634783 C39.8213202,76.2132806 40.2010622,76.1081423 40.6072332,76.0510672 M40.6225341,76.0495652 C40.6183612,76.0495652 40.6141882,76.0495652 40.6100152,76.0510672 C40.6141882,76.0495652 40.6183612,76.0495652 40.6225341,76.0495652 M41.1650228,76.003004 L41.1469398,76.003004 L41.1650228,76.003004 M41.3764542,76 C41.3096864,76 41.2429186,76 41.1775417,76.003004 C41.2415276,76 41.3082954,76 41.3736722,76 C41.5503288,76 41.7311583,76.0075099 41.9161608,76.0225296 C42.6116591,76.0781028 43.2292615,76.1937549 43.7689681,76.3649802 C43.2292615,76.192253 42.6116591,76.0781028 41.9161608,76.0210277 C41.7311583,76.0060079 41.5517198,76 41.3764542,76" id="Fill-4"></path>
                        <path d="M47.9701459,33.0142745 C47.8350168,34.3338135 47.2316498,35.4617601 46.1631874,36.3966737 C44.9391695,37.4669984 43.2170595,38 41,38 L41.0015713,38 C43.2186308,38 44.9407407,37.4655579 46.1647587,36.3966737 C47.2316498,35.4632006 47.8350168,34.3352541 47.9701459,33.0142745 M43.4040404,27 C44.4489338,27.2319277 45.3414141,27.6194343 46.0783389,28.1639602 C47.3589226,29.1103981 48,30.4962022 48,32.3199319 L48,32.4250917 L48,32.3199319 C48,30.4962022 47.3604938,29.1103981 46.0783389,28.1639602 C45.3414141,27.6194343 44.4505051,27.2319277 43.4040404,27" id="Fill-5"></path>
                        <path d="M27.0014225,20 L27,20 L27,58 L35,58 L27.0014225,58 L27.0014225,20" id="Fill-6"></path>
                        <path d="M22.9587536,103.957445 C20.0565942,103.957445 17.4027323,104.435222 14.9066123,105.412758 C17.4027323,104.436687 20.0565942,103.957445 22.9587536,103.957445 L23.0084131,103.957445 C28.0605365,103.961842 33.2616385,105.351204 38.7680003,106.824105 C44.6059122,108.384939 50.6453833,109.995603 56.9024799,110 L56.9492182,110 C62.2510997,109.998534 67.0169508,108.843663 71.5052929,106.469436 C72.0749165,106.167528 72.5627481,105.757168 72.9512606,105.270598 C72.5627481,105.757168 72.0749165,106.167528 71.5052929,106.467971 C67.0140296,108.845129 62.246718,110 56.9404548,110 L56.9024799,110 C50.6468439,109.995603 44.6059122,108.384939 38.7680003,106.824105 C33.2616385,105.351204 28.0605365,103.960376 23.0084131,103.957445 L22.9587536,103.957445 M73.9093968,68.6840492 C73.9692803,68.983026 74.0014129,69.2907962 73.9999523,69.6029631 C74.0014129,69.2907962 73.9692803,68.983026 73.9093968,68.6840492 M56.9638239,67.9571253 L56.9419153,67.9571253 L56.9638239,67.9571253 M48.0893798,66.8315658 C51.1025428,67.4969356 54.0382954,67.9527286 56.9243885,67.9571253 C54.0382954,67.9527286 51.1025428,67.49547 48.0893798,66.8315658 M69.3830797,64.9614954 L69.2165744,64.9717544 L69.3845403,64.9614954 C69.7613682,64.9614954 70.1381962,65.0083937 70.5062607,65.1007248 C70.1381962,65.0083937 69.7613682,64.9614954 69.3830797,64.9614954 M23.0303217,61.9116393 C19.9178397,61.9116393 16.9966929,62.3088094 14.2040765,63.1134087 C16.9952323,62.3088094 19.9149186,61.9116393 23.0244794,61.9116393 L23.0449274,61.9116393 C25.75137,61.916036 28.418377,62.2179439 31.0459486,62.6869271 C28.418377,62.2179439 25.75137,61.9145705 23.0434668,61.9116393 L23.0303217,61.9116393 M0,39.5103656 C0.027750895,49.2109891 3.56818086,58.09822 9.40901397,64.9541676 C9.08476667,65.1124494 8.76344052,65.2736623 8.44357494,65.4436687 C6.92457858,66.248268 5.97958758,67.8208271 5.97374529,69.5399435 L5.94745497,102.311607 C5.94453382,103.935462 6.79312698,105.440604 8.17775058,106.281843 C8.91095843,106.72298 9.73326127,106.951609 10.562867,106.951609 C11.1806895,106.951609 11.7955909,106.827036 12.373978,106.58082 C11.7955909,106.827036 11.1806895,106.951609 10.5643275,106.951609 C9.73472184,106.951609 8.91241901,106.724446 8.17921115,106.281843 C6.79458755,105.440604 5.94453382,103.935462 5.94745497,102.311607 L5.97520586,69.5399435 C5.98104815,67.8222927 6.92603916,66.248268 8.44503551,65.4436687 C8.76344052,65.2736623 9.08622724,65.1124494 9.41047454,64.9556331 C3.56964144,58.09822 0.027750895,49.2109891 0,39.5103656 M0.045277776,37.4776167 C0.0408960558,37.5787412 0.0365143355,37.6784001 0.0321326152,37.7809902 C0.0365143355,37.6784001 0.0408960558,37.5787412 0.045277776,37.4776167 M0.0890949786,36.7111224 C0.0890949786,36.7272437 0.0876344052,36.743365 0.0861738318,36.7580207 C0.0876344052,36.743365 0.0890949786,36.7272437 0.0890949786,36.7111224 M39.2587529,4.8114741 L39.2587529,4.8114741 C58.2622737,4.8114741 73.7209828,20.3260232 73.7209828,39.3945854 C73.7209828,51.2070987 67.786673,61.6507674 58.7515658,67.8926402 C58.5821393,67.9043647 58.4112522,67.9146237 58.2389045,67.9234172 C58.4112522,67.9160893 58.5821393,67.9043647 58.7530264,67.8926402 C67.786673,61.6507674 73.7224434,51.2056331 73.7224434,39.3945854 C73.7224434,20.3260232 58.2622737,4.8114741 39.2587529,4.8114741 M39.2587529,0 C18.5989419,0 1.6153942,16.0949158 0.108082433,36.4458538 C1.6153942,16.0949158 18.6004025,0 39.2587529,0" id="Fill-7"></path>
                        <path d="M35.061051,39.1627871 L35.061051,27.5461836 L41.2899797,27.5461836 C42.1515646,27.5461836 42.9343022,27.6338954 43.6410599,27.8108055 C44.5958278,28.0501545 45.4086707,28.4500606 46.0810223,29.0120105 C47.250828,29.9887328 47.8342973,31.4188803 47.8342973,33.3009663 L47.8342973,33.409491 C47.8342973,33.616134 47.8256958,33.818317 47.8070592,34.0175267 C47.6837708,35.3807754 47.133274,36.5448144 46.1598695,37.508157 C45.0431064,38.6112437 43.4718968,39.1627871 41.4491077,39.1627871 L35.061051,39.1627871 M41.9709328,20 L27,20 L27,58 L35.061051,58 L35.061051,46.600446 L41.1867616,46.600446 C43.2439567,46.600446 45.1721291,46.3209577 46.9698453,45.7590079 C48.7661278,45.1985447 50.3373375,44.3571065 51.680607,43.2346935 C53.0238766,42.1137671 54.0804291,40.7192989 54.8488309,39.0542624 C55.6157991,37.3907124 56,35.4536208 56,33.2459606 L56,33.1374359 C56,31.1839912 55.6774433,29.4015101 55.0323298,27.7899926 C54.3857828,26.1799617 53.4611202,24.7959 52.2569084,23.6378076 C51.0526966,22.4797152 49.5875723,21.584758 47.8601018,20.9499628 C46.1326314,20.3181409 44.1700529,20 41.9709328,20" id="Fill-8"></path>
                        <path d="M16.8807061,67.231667 C18.9733435,66.7509593 21.0659809,66.5472447 23.1556792,66.5472447 C28.8575282,66.5472447 34.5476208,68.0597154 40.2362439,69.5721861 C45.924867,71.0831912 51.6149596,72.5956619 57.3153391,72.5956619 C61.4726924,72.5956619 65.6344544,71.7910627 69.8079728,69.5971008 C69.8094423,69.5985664 69.8094423,69.5971008 69.8109119,69.5971008 C69.8020946,80.4481987 69.7918077,91.5147357 69.7829904,102.367299 L69.7815209,102.368765 C65.6094721,104.561261 61.4477101,105.364395 57.2903568,105.364395 C51.5899773,105.364395 45.8998847,103.853389 40.209792,102.340919 C34.5196994,100.829914 28.8296068,99.3189085 23.1277577,99.317443 C18.9704044,99.317443 14.8071729,100.122042 10.632185,102.316004 C10.6439414,91.4605095 10.6542282,80.3954381 10.6630455,69.5443402 C12.7380483,68.4539544 14.810112,67.707978 16.8807061,67.231667 M39.5014695,4.8114741 L39.5014695,4.8114741 C58.6217679,4.8114741 74.1769411,20.3260232 74.1769411,39.3945854 C74.1769411,51.2056331 68.2046951,61.6507674 59.1155363,67.8926402 C58.9435991,67.9043647 58.7716619,67.9160893 58.5982551,67.9234172 C58.1750251,67.9454008 57.7473864,67.9571253 57.3153391,67.9571253 L57.2932959,67.9571253 C57.2932959,67.9571253 57.2932959,67.9571253 57.2918263,67.9571253 L57.2756613,67.9571253 C54.371833,67.9527286 51.4180401,67.4969356 48.3863611,66.8315658 C46.1173779,66.3347367 43.8028386,65.7221275 41.4339261,65.0948625 C38.1024592,64.2052601 34.7048625,63.3039331 31.2381971,62.6869271 C28.594479,62.2179439 25.911083,61.916036 23.1880092,61.9116393 L23.1674355,61.9116393 C20.0387663,61.9116393 17.1011384,62.3088094 14.2928308,63.1134087 L14.2913613,63.1134087 C8.42639235,56.9169687 4.82452844,48.5676029 4.82452844,39.3945854 C4.82452844,20.3260232 20.3797016,4.8114741 39.5014695,4.8114741 M39.5014695,0 L39.5014695,0 C18.7161725,0 1.62679043,16.0949158 0.110216154,36.4458538 C0.104337959,36.5352537 0.0969902154,36.623188 0.0911120205,36.7111224 C0.0911120205,36.7272437 0.0896424718,36.743365 0.0881729231,36.7580207 C0.0720078872,36.996909 0.0587819487,37.2372628 0.047025559,37.4776167 C0.0426169128,37.5787412 0.0382082667,37.6784001 0.0337996205,37.7809902 C0.0117563897,38.3159241 0,38.8537892 0,39.3945854 C0,39.4326903 0.00146954872,39.4707951 0.00146954872,39.5103656 C0.0293909744,49.2109891 3.59304662,58.09822 9.46977194,64.9556331 C9.14353213,65.1124494 8.81876186,65.2736623 8.49840024,65.4436687 C6.97006957,66.248268 6.01927155,67.8222927 6.01339336,69.5399435 L5.98547193,102.311607 C5.98253283,103.935462 6.83781019,105.440604 8.23094237,106.281843 C8.96865583,106.724446 9.79601176,106.951609 10.6307154,106.951609 C11.250865,106.951609 11.869545,106.827036 12.4514863,106.58082 C12.5690502,106.53099 12.6851445,106.476764 12.7997693,106.416676 C13.5213178,106.037092 14.253153,105.702942 14.9996838,105.412758 C17.5111425,104.435222 20.1813125,103.957445 23.1013059,103.957445 L23.1512705,103.957445 C28.2344395,103.960376 33.4675025,105.351204 39.0077012,106.824105 C44.8814874,108.384939 50.9595409,109.995603 57.2536181,110 L57.2918263,110 C62.6306968,110 67.4273038,108.845129 71.9461662,106.467971 C72.5192902,106.167528 73.0101194,105.757168 73.4010194,105.270598 C74.053499,104.461602 74.4252948,103.441564 74.4267644,102.371696 L74.4561554,69.6029631 C74.4576249,69.2907962 74.4252948,68.983026 74.3650433,68.6840492 C74.1108114,67.423657 73.3378288,66.3112876 72.2106849,65.631262 C71.8124372,65.3894425 71.383329,65.2121083 70.9409948,65.1007248 C70.5706686,65.0083937 70.191525,64.9614954 69.8123814,64.9614954 L69.6433833,64.9717544 L69.5067153,64.9790823 C75.4216489,58.0908921 79,49.1523662 79,39.3945854 C79,17.6718717 61.2816511,0 39.5014695,0" id="Fill-9"></path>
                        <path d="M21.5627822,93 C19.8269276,93 18.1241507,93.12772 16.5062249,93.371807 L13.9031621,93.7705771 L13.9031621,93.7748344 C13.3883022,93.8855251 13,94.3353832 13,94.8732261 C13,95.4933775 13.5134218,95.9971618 14.1404579,96 L14.2555104,95.9843898 L14.4194602,95.9588458 L15.7411258,95.7573321 L16.857135,95.5856197 C17.5359448,95.4820246 18.2348887,95.4025544 18.9453379,95.34579 C19.7823448,95.2790918 20.6380478,95.2450331 21.5038178,95.2450331 L21.5843546,95.2450331 C22.417047,95.2450331 23.1907751,95.2748344 23.9601887,95.3301798 C24.8575982,95.3954588 25.7463787,95.4962157 26.7099434,95.6267739 L26.7113815,95.6210974 L26.8595116,95.6367077 L26.862388,95.6367077 C26.9846312,95.6367077 27.10256,95.6182592 27.2132981,95.5827815 C27.2161744,95.5813623 27.2190507,95.5799432 27.2233652,95.5799432 L27.2248033,95.5785241 C27.6749462,95.4280984 27.9999695,95.0080416 27.9999695,94.512772 C28.004284,93.9351939 27.5498266,93.4626301 26.9788786,93.4001892 L26.9760023,93.3959319 C26.5330502,93.3391675 26.0886599,93.2852412 25.6428315,93.2369915 C24.3082225,93.0950804 22.9635464,93 21.6059269,93 L21.5872309,93 L21.5627822,93" id="Fill-10"></path>
                        <path d="M64.8717461,75 L64.8717461,75 L64.5404897,75.0547753 L62.0475724,75.4382022 C61.7092379,75.4901685 61.368072,75.5365169 61.0226593,75.5772472 C59.8575992,75.7120787 58.6543171,75.7808989 57.4269695,75.7808989 L57.3915788,75.7808989 C55.7381277,75.7794944 54.0931704,75.627809 52.45246,75.4087079 L52.1311129,75.3581461 C51.5082375,75.3581461 51.0014434,75.863764 51.0000278,76.4803371 C50.9957809,77.0842697 51.4785094,77.5758427 52.081566,77.5997191 L52.0829816,77.6067416 L52.0843973,77.6109551 C53.0130479,77.7331461 53.947361,77.8356742 54.8859209,77.9030899 C54.8873366,77.9044944 54.8887522,77.9044944 54.8887522,77.9044944 L54.8901678,77.9044944 C55.7197246,77.9648876 56.5521126,77.9985955 57.3901632,78 L57.4368788,78 C58.7081109,78 59.9552773,77.9311798 61.1656375,77.7963483 C61.1727156,77.7963483 61.1797938,77.7949438 61.1868719,77.7949438 C61.1868719,77.7949438 61.1882875,77.7949438 61.1882875,77.7935393 C61.5931565,77.7485955 61.992363,77.6966292 62.3873227,77.636236 L62.9677293,77.5463483 L64.9566837,77.2401685 L64.9566837,77.2331461 L64.9580993,77.2331461 C65.095415,77.2219101 65.224237,77.1882022 65.3431496,77.1348315 C65.7253686,76.9592697 65.9929219,76.5814607 66,76.1348315 L66,76.119382 L66,76.0842697 C66,76.0758427 66,76.0702247 65.9985844,76.0632022 C65.9985844,76.0505618 65.9971687,76.0393258 65.9971687,76.0280899 C65.9504531,75.4648876 65.4875434,75.0196629 64.9113837,75 L64.8915649,75 L64.8717461,75" id="Fill-11"></path>
                        <path d="M41.5804529,76 C41.51323,76 41.4445769,76 41.3787843,76.002899 L41.3659118,76.002899 L41.3473182,76.002899 C41.1628129,76.0101465 40.9825983,76.0246414 40.8081049,76.0478334 C40.8038141,76.0478334 40.7995232,76.0478334 40.7952324,76.0492829 L40.7938021,76.0492829 C40.3747318,76.1043637 39.984267,76.2058285 39.6238379,76.3507782 C38.9029797,76.6464754 38.293683,77.0537839 37.7973778,77.5727037 C37.302503,78.0945224 36.9191895,78.6960635 36.6474374,79.3802258 C36.3756853,80.0658377 36.2126341,80.7717424 36.1597139,81.4993897 C36.133969,81.8472688 36.1139452,82.2023955 36.1039333,82.5676686 C36.0910608,82.9329417 36.0896305,83.2721239 36.0967819,83.5866646 L35.4560191,83.5373818 L34.7108462,83.4808514 C34.620739,83.8765639 34.5563766,84.2012511 34.5134684,84.4592615 C34.4705602,84.7187214 34.4405244,84.9680348 34.4233611,85.2115502 C34.4033373,85.4695606 34.3947557,85.7391669 34.3976162,86.0189197 C34.3990465,86.2986726 34.4162098,86.6480012 34.4462455,87.0669057 L35.4531585,87.143729 L36.3284863,87.2104059 C36.3299166,87.2133049 36.3299166,87.2162038 36.3299166,87.2191028 C36.3456496,87.6191639 36.3442193,87.9829875 36.3184744,88.3091242 C36.2727056,88.9164632 36.1783075,89.4817669 36.0309893,90.0122826 C35.8865316,90.5413488 35.7048868,91.0254806 35.4903456,91.4588801 C35.2772348,91.896628 35.0398093,92.2763961 34.7780691,92.5952853 C34.5234803,92.9098261 34.2703218,93.1692859 34.015733,93.3736649 C34.0100119,93.3780134 34.0057211,93.3809124 34,93.3852609 L34.1444577,94.2071254 L35.8393325,94.3361306 L44.5668653,95 C44.6741359,94.5810955 44.7470799,94.2143729 44.7856973,93.8969332 C44.7871275,93.8911352 44.7871275,93.8853372 44.7885578,93.8780897 C44.7885578,93.8722917 44.7899881,93.8650442 44.7899881,93.8577968 C44.8271752,93.5476045 44.857211,93.2548062 44.8772348,92.9851999 C44.8958284,92.7416845 44.9101311,92.4546842 44.9187128,92.1256485 C44.9272944,91.7966128 44.9115614,91.4197437 44.8657926,90.9979402 L40.4090584,90.658758 L39.6209774,90.5978792 C39.8169249,90.1789747 39.9642431,89.7267318 40.0615018,89.2469484 C40.1587604,88.7671651 40.224553,88.3018767 40.2574493,87.8496338 L40.2703218,87.6814922 L40.2603099,87.5133506 L40.2603099,87.5104516 L41.627652,87.6133659 L43.0979738,87.7249771 C43.188081,87.3321636 43.2553039,87.0074764 43.2953516,86.7480165 C43.3382598,86.4885566 43.3682956,86.2392432 43.3868892,85.9971773 C43.4054827,85.718874 43.4169249,85.4449191 43.4126341,85.1767623 C43.4097735,84.9057064 43.3940405,84.5578273 43.3625745,84.1403723 L40.0715137,83.8896094 C40.057211,83.6446445 40.0486293,83.3590937 40.0414779,83.035856 C40.0357569,82.7155172 40.0443385,82.3893805 40.0700834,82.0588953 C40.088677,81.797986 40.1401669,81.5385261 40.2302741,81.2732682 C40.3189511,81.0109094 40.4476758,80.7717424 40.6264601,80.5586665 C40.6722288,80.5035856 40.7208582,80.4514037 40.7737783,80.4006713 C40.8495828,80.3281965 40.9311085,80.2615197 41.0212157,80.2020903 C41.1041716,80.14556 41.1942789,80.0933781 41.2915375,80.0469942 C41.3873659,80.0020598 41.4903456,79.9658224 41.6004768,79.941181 C41.7392133,79.9078425 41.8893921,79.8918981 42.0524434,79.8918981 C42.1196663,79.8918981 42.19118,79.8947971 42.2626937,79.9005951 C42.3041716,79.903494 42.3442193,79.906393 42.384267,79.9107415 C42.8891538,79.9600244 43.3210965,80.0745346 43.6815256,80.2528227 C43.6929678,80.2586207 43.7058403,80.2644187 43.7187128,80.2716662 C44.1148987,80.4745957 44.4796186,80.6862222 44.8128725,80.9036466 C45.1690107,80.2151358 45.4379023,79.5570644 45.6224076,78.9265334 C45.8054827,78.2974519 45.9313468,77.7292493 46,77.229173 C45.7725864,77.0943699 45.5423123,76.9697132 45.3091776,76.8566524 C44.9988081,76.7044553 44.6841478,76.5725511 44.3666269,76.4594904 C44.325149,76.4449954 44.283671,76.4305005 44.2436234,76.4160055 C44.1778308,76.394263 44.1106079,76.3739701 44.043385,76.3522276 C43.4884386,76.186985 42.8533969,76.0753738 42.1382598,76.0217424 C41.9480334,76.0072475 41.7620977,76 41.5804529,76" id="Fill-12"></path>
                    </g>
                </g>
            </g>
        </g>
    </g>
</svg>