<svg width="330" height="362" viewBox="0 0 330 362" xmlns="http://www.w3.org/2000/svg"><title>Oval 44 Copy 2 + Rectangle 89 + Imported Layers</title><g transform="translate(3.6 -7)" fill="none" fill-rule="evenodd"><ellipse stroke="#FFF" stroke-width="6.555" stroke-dasharray="2" cx="161.5" cy="203.388" rx="161.5" ry="161.713"/><path fill="#000" d="M121.63 30.632h76.538v38.873H121.63z"/><path d="M189.964 51.73l.102-11.03c.005-.523-.2-1.03-.567-1.404-.367-.375-.87-.588-1.395-.59l-14.904-.12c-.524-.005-1.03.2-1.405.568-.374.37-.587.87-.592 1.397l-.03 3.49-5.285-.042.09-9.834c.012-1.263-.395-2.453-1.127-3.42 3.56-.792 6.637-3.367 7.873-7.074.165-.5.127-1.042-.108-1.512s-.648-.83-1.144-.993l-7.25-2.41 1.02-4.427c1.357-.227 2.513-1.245 2.842-2.667.42-1.833-.78-3.768-2.625-4.193-.91-.208-1.848-.05-2.64.447s-1.344 1.273-1.554 2.184c-.32 1.393.248 2.827 1.405 3.64l-.962 4.18-6.796-2.26c-1.038-.345-2.16.22-2.505 1.256-1.554 4.665.234 9.73 4.346 12.38-1.63.97-2.74 2.74-2.757 4.774l-.09 9.834-5.6-.045.033-3.49c.01-1.094-.87-1.987-1.962-1.996l-14.902-.118c-.525-.004-1.03.2-1.406.57-.375.368-.587.87-.592 1.396l-.1 11.03c-.007.525.198 1.03.567 1.405.11.112.23.21.362.29.307.193.664.3 1.033.302l14.903.118c.524.004 1.03-.2 1.406-.57.374-.367.586-.87.59-1.396l.034-3.577 5.6.045-.102 11.07c-.018 1.966.966 3.76 2.634 4.803.874.546 1.884.84 2.92.848l.776.006c1.497.012 2.91-.56 3.977-1.61 1.068-1.05 1.665-2.455 1.677-3.953l.1-11.07 5.285.043-.032 3.577c-.008.715.367 1.345.93 1.697.3.187.652.297 1.03.3l14.904.12c1.094.007 1.988-.872 1.997-1.967zm-26.126-41.043c.05-.223.187-.413.38-.535.195-.122.424-.16.647-.11.094.022.183.058.263.108.31.194.462.564.38.92-.106.462-.567.75-1.03.645-.46-.105-.743-.58-.64-1.028zm-30.487 38.61l.066-7.067 4.176.034-.064 7.068-4.177-.034zm6.82.056l.064-7.068 4.123.033-.063 7.068-4.125-.033zm15.643-29.216l12.245 4.07c-1.677 2.352-4.752 3.45-7.63 2.493-.51-.17-1-.4-1.45-.68-2.068-1.293-3.227-3.546-3.165-5.883zm5.486 40.02c-.315.308-.728.476-1.17.472l-.776-.007c-.89-.007-1.638-.782-1.63-1.658l.23-24.865c.007-.907.75-1.64 1.656-1.63l.78.005c.304.002.6.087.853.246.49.308.78.835.775 1.412L161.79 59c-.004.438-.18.85-.49 1.157zm13.78-10.527l.064-7.067 4.225.034-.066 7.067-4.224-.034zm6.864.055l.065-7.066 4.077.03-.064 7.068-4.08-.033z" fill="#7ED321"/></g></svg>