<?xml version="1.0" encoding="UTF-8" standalone="no"?>
<svg width="32px" height="36px" viewBox="0 0 32 36" version="1.1" xmlns="http://www.w3.org/2000/svg" xmlns:xlink="http://www.w3.org/1999/xlink" xmlns:sketch="http://www.bohemiancoding.com/sketch/ns">
    <!-- Generator: Sketch 3.3.2 (12043) - http://www.bohemiancoding.com/sketch -->
    <title>Group Copy 2</title>
    <desc>Created with Sketch.</desc>
    <defs></defs>
    <g id="Notices" stroke="none" stroke-width="1" fill="none" fill-rule="evenodd" sketch:type="MSPage">
        <g id="4.2-Gallery-view---My-collection---Favourited" sketch:type="MSArtboardGroup" transform="translate(-1538.000000, -508.000000)" fill="#FFFFFF">
            <g id="Group-Copy-2" sketch:type="MSLayerGroup" transform="translate(1538.000000, 508.000000)">
                <path d="M16.14464,5.0688 C14.29248,5.0688 12.78464,6.5664 12.78464,8.4224 C12.78464,10.2784 14.29248,11.7888 16.14464,11.7888 C17.99808,11.7888 19.50464,10.2784 19.50464,8.4224 C19.50464,6.5664 17.99808,5.0688 16.14464,5.0688 L16.14464,5.0688 Z M16.14464,13.0688 C13.58592,13.0688 11.50464,10.98368 11.50464,8.4224 C11.50464,5.8624 13.58592,3.7888 16.14464,3.7888 C18.70336,3.7888 20.78464,5.8624 20.78464,8.4224 C20.78464,10.98368 18.70336,13.0688 16.14464,13.0688 L16.14464,13.0688 Z" id="Fill-714" sketch:type="MSShapeGroup"></path>
                <path d="M16.14464,22.6688 C13.02912,22.6688 10.06848,21.67168 7.58528,19.80288 C7.3024,19.58528 7.24608,19.1872 7.45856,18.90688 C7.67104,18.62528 8.07296,18.56 8.35456,18.7776 C10.61504,20.48 13.30816,21.3888 16.14464,21.3888 C23.29088,21.3888 29.10464,15.5648 29.10464,8.4224 C29.10464,8.06528 29.39136,7.7824 29.74464,7.7824 C30.0992,7.7824 30.38464,8.06528 30.38464,8.4224 C30.38464,16.2688 23.99744,22.6688 16.14464,22.6688" id="Fill-715" sketch:type="MSShapeGroup"></path>
                <path d="M16.64,4.26368 C16.28672,4.26368 16,3.9808 16,3.6224 L16,1.0624 C16,0.704 16.28672,0.42368 16.64,0.42368 C16.99328,0.42368 17.28,0.704 17.28,1.0624 L17.28,3.6224 C17.28,3.9808 16.99328,4.26368 16.64,4.26368" id="Fill-716" sketch:type="MSShapeGroup"></path>
                <path d="M0.94464,35.4688 C0.85888,35.4688 0.77312,35.4432 0.68864,35.4048 C0.3648,35.264 0.21632,34.89408 0.3584,34.56 L11.5584,8.96 C11.70048,8.64 12.07808,8.4864 12.40064,8.64 C12.72448,8.7808 12.87296,9.152 12.73088,9.4848 L1.53088,35.0848 C1.42592,35.3152 1.19168,35.4688 0.94464,35.4688" id="Fill-717" sketch:type="MSShapeGroup"></path>
                <path d="M31.34592,35.4688 C31.09888,35.4688 30.86336,35.3152 30.7584,35.0848 L19.5584,9.4848 C19.41632,9.152 19.5648,8.7808 19.88864,8.64 C20.2112,8.4864 20.5888,8.64 20.73088,8.96 L31.93088,34.56 C32.07296,34.89408 31.92448,35.264 31.60064,35.4048 C31.51744,35.4432 31.43168,35.4688 31.34592,35.4688" id="Fill-718" sketch:type="MSShapeGroup"></path>
            </g>
        </g>
    </g>
</svg>