<?xml version="1.0" encoding="UTF-8" standalone="no"?>
<svg width="46px" height="21px" viewBox="0 0 46 21" version="1.1" xmlns="http://www.w3.org/2000/svg" xmlns:xlink="http://www.w3.org/1999/xlink" xmlns:sketch="http://www.bohemiancoding.com/sketch/ns">
    <!-- Generator: Sketch 3.3.2 (12043) - http://www.bohemiancoding.com/sketch -->
    <title>Group</title>
    <desc>Created with Sketch.</desc>
    <defs></defs>
    <g id="Notices" stroke="none" stroke-width="1" fill="none" fill-rule="evenodd" sketch:type="MSPage">
        <g id="1.0-Canvas-view-Copy-5" sketch:type="MSArtboardGroup" transform="translate(-839.000000, -1440.000000)" fill="#0A0B09">
            <g id="Group" sketch:type="MSLayerGroup" transform="translate(862.500000, 1450.500000) rotate(90.000000) translate(-862.500000, -1450.500000) translate(852.000000, 1428.000000)">
                <path d="M14.415,45.495 C7.035,45.495 0.54,34.8915 0.54,22.815 C0.54,10.92 7.035,0.495 14.415,0.495 C14.835,0.495 15.165,0.8265 15.165,1.245 C15.165,1.665 14.835,1.995 14.415,1.995 C7.83,1.995 2.04,11.7165 2.04,22.815 C2.04,33.9015 7.95,43.995 14.415,43.995 C14.835,43.995 15.165,44.3265 15.165,44.745 C15.165,45.165 14.835,45.495 14.415,45.495" id="Fill-1038" sketch:type="MSShapeGroup"></path>
                <path d="M14.415,31.995 C10.53,31.995 6.165,28.0665 6.165,22.815 C6.165,17.61 10.515,13.995 14.415,13.995 C14.835,13.995 15.165,14.3265 15.165,14.745 C15.165,15.165 14.835,15.495 14.415,15.495 C11.22,15.495 7.665,18.495 7.665,22.815 C7.665,27.135 11.295,30.495 14.415,30.495 C14.835,30.495 15.165,30.8265 15.165,31.245 C15.165,31.665 14.835,31.995 14.415,31.995" id="Fill-1039" sketch:type="MSShapeGroup"></path>
                <path d="M15,43.995 L17.235,43.995 C18.33,43.995 19.5,42.75 19.5,41.5665 L19.5,34.065 C19.5,32.985 18.42,31.995 17.235,31.995 L15,31.995 L15,43.995 L15,43.995 Z M17.235,45.495 L14.25,45.495 C13.83,45.495 13.5,45.165 13.5,44.745 L13.5,31.245 C13.5,30.8265 13.83,30.495 14.25,30.495 L17.235,30.495 C19.275,30.495 21,32.13 21,34.065 L21,41.5665 C21,43.5765 19.17,45.495 17.235,45.495 L17.235,45.495 Z" id="Fill-1040" sketch:type="MSShapeGroup"></path>
                <path d="M15,13.995 L17.235,13.995 C18.33,13.995 19.5,12.75 19.5,11.565 L19.5,4.0665 C19.5,2.985 18.42,1.995 17.235,1.995 L15,1.995 L15,13.995 L15,13.995 Z M17.235,15.495 L14.25,15.495 C13.83,15.495 13.5,15.165 13.5,14.745 L13.5,1.245 C13.5,0.8265 13.83,0.495 14.25,0.495 L17.235,0.495 C19.275,0.495 21,2.13 21,4.0665 L21,11.565 C21,13.5915 19.17,15.495 17.235,15.495 L17.235,15.495 Z" id="Fill-1041" sketch:type="MSShapeGroup"></path>
            </g>
        </g>
    </g>
</svg>